<?xml version="1.0" standalone="no"?>
<!DOCTYPE svg PUBLIC "-//W3C//DTD SVG 20010904//EN"
 "http://www.w3.org/TR/2001/REC-SVG-20010904/DTD/svg10.dtd">
<svg version="1.0" xmlns="http://www.w3.org/2000/svg"
 width="435.000000pt" height="569.000000pt" viewBox="0 0 435.000000 569.000000"
 preserveAspectRatio="xMidYMid meet">

<g transform="translate(0.000000,569.000000) scale(0.100000,-0.100000)"
fill="#000000" stroke="none">
<path d="M1 4702 c1 -543 4 -978 6 -967 6 23 33 64 33 50 0 -5 17 7 37 26 40
36 98 79 108 79 6 0 28 10 170 76 28 12 76 28 107 34 32 6 60 15 63 20 9 14
85 2 120 -20 18 -11 35 -16 37 -10 4 13 176 18 186 5 4 -5 33 -23 64 -39 53
-26 108 -80 108 -105 0 -14 12 -14 28 -1 7 5 5 2 -3 -7 -13 -15 -16 -15 -40
11 -14 15 -25 32 -25 37 0 6 -10 9 -22 7 -15 -2 -34 7 -52 25 -30 28 -46 34
-46 17 0 -6 -17 -1 -37 10 l-38 20 -3 -20 c-4 -22 -22 -28 -22 -6 0 9 -11 13
-33 13 -18 -1 -38 2 -44 6 -6 4 -14 3 -17 -2 -7 -10 22 -24 34 -16 4 3 13 -2
20 -10 10 -12 10 -15 -1 -15 -8 -1 -1 -8 14 -16 35 -19 30 -28 -7 -14 -15 5
-31 8 -36 5 -5 -3 -11 -1 -15 5 -3 5 -1 10 6 10 7 0 9 3 5 7 -14 14 -91 34
-158 42 -63 6 -66 6 -52 -11 17 -18 96 -49 123 -47 12 0 11 3 -4 9 l-20 9 20
0 c21 1 58 -18 40 -20 -5 0 1 -5 15 -9 18 -7 11 -8 -25 -5 -27 2 -88 7 -135
10 -52 4 -95 3 -110 -3 l-25 -11 28 0 c15 -1 35 -5 45 -10 9 -5 37 -14 62 -20
39 -8 35 -9 -32 -4 -49 3 -78 2 -78 -5 0 -5 -24 -10 -52 -10 -143 -2 -156 -4
-179 -28 -18 -19 -19 -24 -7 -24 9 0 18 5 20 12 3 8 9 8 22 1 17 -10 16 -13
-14 -39 -17 -16 -36 -29 -41 -29 -5 0 -9 -4 -10 -10 0 -5 -5 -16 -11 -22 -6
-7 -7 -13 -2 -13 5 0 -2 -6 -15 -13 -13 -6 -28 -22 -32 -35 -9 -22 -8 -22 39
4 65 38 72 44 72 65 0 19 23 34 115 77 l50 23 -45 -5 c-43 -6 -44 -5 -20 9 32
18 64 19 79 1 9 -11 3 -17 -30 -30 -44 -18 -158 -113 -159 -133 0 -6 -4 -15
-10 -18 -6 -3 -7 1 -4 10 8 21 -20 10 -66 -24 -54 -42 -61 -45 -53 -24 5 14 1
13 -20 -6 -21 -19 -27 -34 -27 -64 l0 -40 23 21 c13 12 33 22 44 22 11 0 26 6
33 14 6 8 17 13 24 10 7 -3 25 8 39 25 23 28 25 29 30 10 5 -20 6 -20 44 5 21
14 43 26 50 26 7 0 13 4 13 9 0 12 93 30 208 41 74 7 98 6 122 -6 20 -11 27
-20 23 -31 -5 -13 -2 -15 11 -10 18 7 89 -24 101 -44 11 -17 8 -79 -5 -94 -9
-11 -9 -15 -1 -15 6 0 11 -6 11 -13 0 -7 16 -21 35 -30 20 -9 38 -24 41 -32 4
-8 13 -15 20 -15 8 0 17 -7 20 -15 4 -8 14 -15 23 -15 17 0 57 -57 47 -67 -3
-3 -20 0 -38 7 -66 24 -102 28 -187 20 -78 -7 -92 -12 -121 -38 -32 -30 -32
-31 -26 -94 4 -34 9 -87 12 -116 l5 -54 -50 -47 c-40 -38 -49 -52 -44 -70 5
-21 40 -43 54 -35 4 2 12 -3 19 -11 8 -10 29 -15 59 -14 35 0 41 2 26 9 -20 9
-19 9 2 15 33 10 36 34 14 106 -24 75 -24 109 -1 101 12 -4 13 -2 3 9 -7 7
-13 16 -13 19 0 7 150 -17 158 -25 3 -3 -21 -5 -53 -5 -71 0 -69 -6 6 -14 31
-4 70 -11 87 -15 17 -5 33 -7 36 -4 8 8 68 -18 87 -37 15 -15 15 -21 3 -49 -8
-18 -12 -37 -9 -41 8 -13 -6 -40 -22 -40 -25 0 -73 -30 -73 -45 0 -8 -5 -15
-10 -15 -18 0 -33 -53 -31 -110 2 -51 -1 -58 -30 -84 -24 -22 -36 -27 -48 -19
-26 16 -24 49 3 90 32 47 32 63 2 93 -23 21 -26 21 -41 6 -9 -9 -23 -16 -31
-16 -10 0 -12 -5 -8 -12 6 -10 5 -10 -8 0 -8 6 -49 15 -91 18 -66 6 -77 5 -83
-10 -3 -9 -17 -16 -30 -16 -13 0 -24 -4 -24 -9 0 -10 25 -20 68 -27 15 -2 42
-7 61 -12 l34 -7 -27 -19 c-16 -10 -60 -22 -100 -28 -39 -5 -75 -13 -80 -18
-12 -12 38 -35 109 -49 93 -19 95 -20 95 -47 0 -13 -5 -24 -12 -24 -6 0 -26
-11 -44 -25 -18 -14 -37 -25 -42 -25 -5 0 -31 -10 -57 -21 -72 -32 -169 -9
-240 56 -34 32 -87 32 -76 0 4 -11 30 -35 57 -53 56 -37 124 -102 156 -148 12
-17 35 -38 52 -47 55 -27 229 -70 298 -73 37 -1 72 -5 78 -9 15 -9 12 -25 -5
-25 -8 0 -15 -4 -15 -8 0 -9 -71 -7 -135 3 -22 3 -64 7 -95 9 -54 3 -101 18
-210 69 -31 14 -79 35 -108 46 -71 28 -155 71 -149 77 2 2 16 0 31 -6 32 -12
46 -6 46 18 -1 37 -22 47 -87 44 l-63 -4 0 -92 0 -93 64 -11 c35 -7 74 -12 86
-12 44 0 140 -70 140 -102 0 -12 6 -18 16 -16 10 2 19 -2 21 -8 6 -16 -98 -38
-108 -22 -4 7 -5 15 -2 18 3 3 8 -1 10 -7 3 -7 9 -13 14 -13 4 0 6 6 3 14 -3
9 3 17 15 21 37 11 23 23 -16 14 -49 -11 -50 -11 -51 4 0 6 -3 23 -6 35 -4 19
-2 23 12 17 12 -4 14 -3 7 4 -6 6 -25 14 -43 17 -27 6 -33 3 -41 -19 -5 -14
-15 -28 -20 -32 -6 -3 -11 -15 -11 -25 0 -15 -6 -19 -22 -17 -17 1 -22 -3 -20
-16 2 -11 -5 -25 -15 -33 -17 -13 -17 -14 1 -7 13 4 17 3 12 -5 -4 -7 -1 -12
8 -12 9 0 16 -9 16 -20 0 -11 -4 -20 -10 -20 -5 0 -10 8 -10 18 0 12 -2 14 -8
4 -5 -7 -16 -10 -27 -6 -13 5 -16 3 -13 -7 2 -7 19 -18 36 -23 18 -5 32 -13
32 -18 0 -5 -4 -7 -8 -4 -5 3 -20 7 -35 10 l-27 5 0 -753 c0 -571 3 -755 12
-764 9 -9 9 -12 0 -12 -13 0 23 -38 60 -62 22 -14 25 -22 19 -49 -5 -23 -13
-33 -29 -36 -16 -2 -21 1 -16 9 5 8 2 9 -10 5 -14 -5 -17 -3 -12 8 3 9 0 15
-8 15 -12 0 -15 -27 -15 -135 l-1 -135 2175 0 2175 0 0 595 c0 456 -3 595 -12
595 -9 0 -9 3 0 12 9 9 12 85 11 283 0 246 -1 268 -15 248 l-16 -22 -29 32
c-24 26 -31 29 -41 18 -11 -12 -10 -13 5 -8 9 4 17 2 17 -3 0 -6 -4 -10 -10
-10 -5 0 -10 -12 -10 -26 0 -17 4 -23 13 -19 6 4 3 -1 -7 -9 -18 -14 -20 -14
-31 7 -8 14 -8 26 -2 35 12 16 -4 16 -38 0 -24 -11 -25 -13 -8 -19 17 -7 17
-8 0 -8 -10 -1 -27 -10 -39 -21 -12 -11 -31 -20 -42 -19 -20 0 -20 1 1 11 13
6 23 17 23 24 0 7 11 21 24 32 13 10 21 23 18 29 -10 14 -51 23 -58 12 -3 -5
0 -9 5 -9 6 0 11 -4 11 -9 0 -4 -11 -6 -25 -3 -28 5 -30 10 -11 35 17 22 60
22 81 0 16 -16 18 -15 34 4 19 25 88 63 113 63 9 0 20 5 23 11 9 14 -87 0 -96
-13 -4 -6 -21 -7 -40 -3 -31 7 -32 6 -16 -9 9 -10 17 -19 17 -20 0 -6 -61 7
-65 15 -7 11 27 45 52 53 10 3 -1 3 -24 0 -32 -4 -53 0 -85 16 -24 13 -51 26
-60 31 -20 10 -232 39 -284 39 -19 0 -43 -5 -54 -12 -25 -16 -35 -5 -20 21 9
17 8 21 -5 21 -16 0 -19 20 -9 58 7 25 32 29 41 6 9 -25 45 -33 76 -17 24 12
31 12 45 1 16 -14 16 -13 -5 40 -4 10 1 13 18 10 14 -2 25 -11 27 -22 2 -10 0
-16 -6 -12 -6 4 -8 -2 -5 -15 6 -21 7 -21 20 -4 7 11 13 23 13 28 0 22 63 158
69 148 7 -11 62 1 86 20 6 4 26 10 46 14 36 7 36 7 32 -27 -3 -32 -3 -32 9 -8
15 31 52 63 78 67 19 3 26 -15 21 -56 -2 -7 3 -10 9 -6 6 4 9 14 6 22 -8 21 4
39 15 22 6 -10 9 -11 9 -1 0 6 5 12 11 12 7 0 9 -10 5 -25 -4 -14 -2 -25 4
-25 5 0 11 5 11 10 1 6 2 14 3 19 0 5 4 13 9 17 4 4 7 12 7 18 0 6 -5 4 -10
-4 -6 -9 -10 -10 -10 -3 0 17 15 24 34 17 10 -4 16 -19 17 -38 0 -26 2 -28 9
-11 5 11 9 39 9 61 1 37 -2 42 -24 46 -14 3 -37 -1 -52 -10 -46 -24 -94 -32
-100 -16 -11 29 -73 27 -73 -3 0 -8 -15 -21 -32 -29 -18 -8 -40 -19 -49 -26
-21 -15 -49 -3 -56 22 -6 22 -11 24 -32 11 -11 -7 -9 -10 8 -16 11 -3 21 -11
21 -16 0 -6 -9 -7 -21 -4 -14 5 -28 0 -45 -16 -16 -15 -24 -18 -24 -9 0 11 -3
11 -12 2 -10 -10 -10 -15 -1 -20 8 -5 9 -12 2 -22 -8 -11 -12 -12 -16 -2 -7
17 -23 4 -16 -14 9 -23 -23 -50 -88 -73 -60 -22 -85 -21 -75 5 3 8 0 14 -6 14
-7 0 -7 5 2 14 9 12 7 21 -11 45 -29 39 -33 39 -25 -3 7 -37 -3 -50 -46 -61
-32 -8 -68 2 -68 19 0 7 -22 36 -49 65 l-48 53 -7 -38 c-9 -56 -20 -71 -39
-53 -10 10 -12 21 -6 36 7 19 5 23 -12 23 -11 0 -27 6 -35 14 -21 21 -17 46 7
46 11 0 18 4 15 9 -3 5 -16 7 -29 4 -12 -3 -19 -2 -14 2 4 5 0 16 -8 25 -8 9
-22 36 -30 60 -9 25 -29 62 -45 82 -27 33 -39 68 -24 68 3 0 19 -14 35 -31 16
-17 33 -28 39 -24 5 3 10 2 10 -4 0 -5 -6 -11 -12 -14 -9 -3 -4 -12 13 -28 14
-13 29 -32 33 -43 4 -11 12 -16 22 -12 8 3 12 2 9 -4 -3 -5 5 -14 17 -21 20
-11 20 -13 6 -18 -12 -4 -14 -11 -9 -20 7 -11 13 -11 32 0 14 7 84 15 169 19
80 4 156 11 170 15 l25 9 -18 -28 c-10 -15 -16 -30 -14 -32 3 -3 53 20 112 51
58 32 109 54 112 51 3 -3 33 10 67 28 69 38 170 60 281 59 39 0 61 2 50 4 -11
2 -25 14 -30 26 -11 25 -52 26 -72 1 -8 -11 -13 -12 -18 -4 -5 8 -10 8 -20 0
-10 -9 -19 -6 -34 9 -22 22 -28 51 -11 51 18 0 10 28 -15 51 -13 13 -25 32
-25 42 0 21 16 23 24 2 3 -8 16 -15 30 -15 14 0 27 -4 30 -9 8 -12 -12 -63
-27 -73 -9 -6 -8 -10 2 -17 10 -7 19 -4 27 7 7 10 16 13 21 8 4 -5 2 -11 -4
-13 -7 -3 -13 -9 -13 -14 0 -5 11 -4 24 2 19 9 23 16 17 33 -6 19 -7 30 -2 54
1 4 8 -1 15 -11 9 -12 16 -14 21 -8 10 17 38 13 31 -4 -3 -9 0 -15 9 -15 8 0
15 -7 15 -15 0 -8 5 -15 10 -15 16 0 11 32 -7 46 -17 13 -17 13 0 14 13 0 17
9 17 38 0 25 -3 33 -9 23 -5 -8 -7 -20 -4 -28 8 -20 -10 -16 -30 7 -10 12 -22
18 -27 15 -6 -3 -10 1 -10 9 0 12 10 16 40 16 l40 0 0 226 c0 202 -2 225 -16
220 -20 -8 -57 12 -48 26 4 7 10 5 16 -6 7 -12 13 -14 29 -6 18 10 19 23 19
195 0 102 -3 185 -6 185 -3 0 -14 -5 -25 -10 -17 -10 -18 -9 -7 15 7 15 17 24
25 21 10 -4 13 7 13 45 0 41 -3 50 -15 45 -9 -3 -15 0 -15 9 0 18 -12 19 -28
3 -20 -20 -25 -1 -7 26 19 29 35 34 35 10 0 -32 24 -6 28 30 3 34 1 37 -16 32
-11 -4 -23 -2 -27 4 -5 7 -12 5 -21 -7 -13 -17 -13 -17 -14 5 0 26 -12 29 -30
7 -7 -8 -19 -15 -26 -15 -8 0 -14 -4 -14 -10 0 -5 -13 -10 -29 -10 -16 0 -31
-6 -34 -12 -2 -7 -8 -10 -12 -6 -4 4 -4 15 0 25 5 10 9 23 9 28 3 29 43 51 99
54 51 3 56 1 50 -15 -5 -14 -2 -16 18 -11 13 4 30 7 37 7 8 0 12 20 12 67 0
65 -1 66 -16 45 -9 -13 -17 -30 -18 -39 -1 -8 -19 -21 -39 -28 -20 -7 -34 -9
-31 -4 7 12 -3 11 -51 -3 -22 -6 -44 -11 -48 -10 -4 1 -21 -5 -37 -13 -38 -20
-60 -19 -60 2 0 15 -1 15 -18 0 -10 -10 -24 -17 -31 -17 -7 0 -10 -4 -6 -10 3
-5 12 -7 20 -3 11 4 13 1 9 -11 -8 -20 -14 -20 -41 -1 -20 14 -22 14 -28 -6
-4 -11 -9 -18 -12 -15 -3 3 -14 1 -24 -5 -12 -6 -19 -6 -19 0 0 5 6 12 13 14
9 4 9 6 0 6 -7 1 -13 6 -13 12 0 5 4 8 10 4 5 -3 18 3 30 15 11 11 25 20 30
20 6 0 10 5 10 10 0 6 6 10 14 10 7 0 22 11 32 25 10 14 26 25 36 25 9 0 20 5
23 10 8 13 45 13 45 0 0 -6 -12 -18 -27 -28 -28 -17 -41 -42 -23 -42 6 0 10 4
10 8 0 5 12 15 28 23 15 8 30 18 34 23 4 6 13 5 22 -3 10 -9 20 -10 34 -2 11
6 21 9 23 7 2 -2 19 -6 37 -9 31 -6 33 -5 30 21 -2 22 1 26 16 24 18 -3 18 -2
6 13 -12 15 -12 16 6 13 17 -3 19 4 22 64 3 72 4 71 -56 52 -7 -2 -15 -3 -19
-3 -3 1 -11 -7 -17 -18 -10 -17 -11 -22 -14 -52 -1 -8 -8 -11 -19 -7 -9 4 -20
1 -24 -6 -4 -6 -26 -13 -48 -13 -32 -1 -41 3 -41 16 0 14 6 16 37 8 21 -4 39
-6 42 -3 2 2 -1 4 -7 4 -7 0 -12 5 -12 10 0 6 13 10 28 10 23 0 31 7 42 35 11
27 23 37 56 49 23 8 45 12 48 8 3 -3 6 11 6 30 0 20 -6 39 -12 41 -10 4 -10 6
0 6 9 1 12 34 11 139 -1 75 -3 131 -6 125 -8 -21 -22 -15 -16 7 3 11 9 20 14
20 5 0 9 25 9 55 0 31 -4 55 -10 55 -7 0 -7 6 -1 18 14 27 13 403 -2 421 -9
12 -9 13 0 7 10 -6 13 24 13 137 0 125 -2 146 -16 151 -16 6 -16 8 0 24 13 16
16 44 16 170 l0 152 -197 -2 c-158 -2 -197 -6 -201 -17 -3 -10 1 -12 17 -8 11
3 24 1 27 -4 6 -11 -49 -12 -60 -1 -4 4 -13 7 -19 7 -7 1 -11 6 -10 13 2 9
-209 12 -937 12 l-940 0 0 -40 c0 -22 -4 -40 -9 -40 -5 0 -7 18 -4 39 l5 39
-132 1 c-87 1 -137 -2 -146 -10 -10 -8 -14 -8 -14 0 0 6 -5 11 -10 11 -6 0 -9
-5 -8 -11 2 -6 -3 -14 -11 -17 -10 -3 -12 0 -8 10 4 12 -3 16 -34 16 -38 1
-52 -11 -26 -21 9 -4 9 -8 -3 -16 -18 -13 -30 -5 -25 17 3 15 -6 18 -59 20
l-61 3 -17 -38 c-9 -21 -17 -30 -17 -20 -1 9 -6 17 -12 17 -5 0 -7 -4 -4 -10
9 -15 -13 -12 -40 6 -13 9 -21 22 -18 29 4 12 -33 14 -231 14 -224 0 -235 -1
-241 -20 -6 -19 -45 -27 -45 -9 0 6 5 10 10 10 6 0 10 5 10 10 0 7 -39 10
-110 9 -60 -2 -110 -7 -110 -11 0 -12 -48 -10 -55 2 -4 7 -111 10 -306 10
l-299 -1 1 -987z m110 955 c-11 -11 -41 -3 -41 11 0 5 12 7 26 4 17 -3 22 -8
15 -15z m2154 13 c-3 -5 -12 -10 -18 -10 -7 0 -6 4 3 10 19 12 23 12 15 0z
m905 -14 c0 -3 -4 -8 -10 -11 -5 -3 -10 -1 -10 4 0 6 5 11 10 11 6 0 10 -2 10
-4z m766 -17 c3 -5 -11 -9 -32 -9 -30 0 -34 2 -25 14 12 14 47 11 57 -5z
m-3293 -17 c-3 -12 -9 -19 -14 -16 -5 3 -3 14 3 24 15 24 19 21 11 -8z m164
-4 c10 -23 -4 -68 -22 -68 -28 0 -33 16 -17 53 19 43 25 45 39 15z m63 12 c0
-5 -4 -10 -10 -10 -5 0 -10 5 -10 10 0 6 5 10 10 10 6 0 10 -4 10 -10z m-190
-10 c0 -5 -2 -10 -4 -10 -3 0 -8 5 -11 10 -3 6 -1 10 4 10 6 0 11 -4 11 -10z
m914 -6 c9 -23 4 -24 -16 -2 -14 14 -15 18 -4 18 8 0 17 -7 20 -16z m2456 -4
c12 -23 11 -23 -55 -6 l-50 14 40 4 c22 3 43 5 47 6 4 1 12 -7 18 -18z m-1310
0 c0 -5 -2 -10 -4 -10 -3 0 -8 5 -11 10 -3 6 -1 10 4 10 6 0 11 -4 11 -10z
m-2500 -23 c0 -31 29 -89 41 -82 5 4 9 14 9 23 0 13 2 14 13 3 10 -10 9 -14
-5 -22 -10 -6 -18 -17 -18 -24 0 -8 -4 -15 -10 -15 -17 0 -11 -18 8 -23 12 -3
11 -5 -6 -6 -13 0 -37 -8 -53 -17 -44 -22 -47 -11 -4 14 33 20 50 62 24 62 -6
0 -9 6 -6 14 3 7 -6 25 -20 40 -24 26 -24 28 -7 41 27 20 34 18 34 -8z m1280
13 c0 -5 -4 -10 -9 -10 -6 0 -13 5 -16 10 -3 6 1 10 9 10 9 0 16 -4 16 -10z
m280 6 c0 -9 -32 -36 -42 -36 -6 0 0 9 13 20 25 21 29 23 29 16z m610 -6 c0
-5 -4 -10 -10 -10 -5 0 -10 5 -10 10 0 6 5 10 10 10 6 0 10 -4 10 -10z m-2010
-14 c-6 -8 -19 -12 -28 -10 -11 4 -10 1 3 -7 11 -6 22 -13 24 -15 6 -6 -21
-34 -32 -34 -7 0 -7 4 1 12 18 18 15 27 -7 21 -15 -4 -19 0 -16 14 2 10 4 21
4 26 1 4 15 7 32 7 26 0 29 -2 19 -14z m2120 4 c0 -13 -41 -30 -54 -22 -5 2 2
11 15 18 29 16 39 17 39 4z m1385 -14 c14 -13 22 -27 16 -30 -5 -3 -11 -2 -13
3 -1 5 -16 7 -31 4 -17 -3 -24 -9 -18 -13 8 -4 3 -16 -15 -33 -34 -34 -41 -34
-49 3 -4 18 -11 27 -18 23 -7 -4 -8 0 -4 11 4 10 7 22 7 27 0 16 32 10 46 -8
11 -17 13 -16 23 10 13 33 23 34 56 3z m-2278 -18 c-3 -7 -5 -2 -5 12 0 14 2
19 5 13 2 -7 2 -19 0 -25z m940 26 c-3 -3 -12 -4 -19 -1 -8 3 -5 6 6 6 11 1
17 -2 13 -5z m-674 -23 c5 -22 -1 -33 -14 -25 -12 7 -12 44 0 44 5 0 11 -9 14
-19z m-255 -27 c-9 -9 -22 -14 -30 -11 -8 3 -4 8 12 15 35 15 37 14 18 -4z
m687 6 c-3 -5 -10 -10 -16 -10 -5 0 -9 5 -9 10 0 6 7 10 16 10 8 0 12 -4 9
-10z m-991 -16 c14 -14 14 -17 0 -40 -24 -35 -70 -34 -77 4 -3 15 -1 33 5 40
14 17 53 15 72 -4z m246 -4 c0 -5 -7 -7 -15 -4 -8 4 -15 8 -15 10 0 2 7 4 15
4 8 0 15 -4 15 -10z m432 -37 c-7 -65 -12 -67 -12 -5 0 29 4 52 9 52 5 0 6
-21 3 -47z m2008 37 c0 -5 -5 -10 -11 -10 -5 0 -7 5 -4 10 3 6 8 10 11 10 2 0
4 -4 4 -10z m-550 -16 c0 -11 6 -15 18 -11 41 11 47 11 45 1 -1 -7 17 -15 42
-19 46 -6 63 -25 23 -25 -21 0 -21 0 -2 -15 17 -15 17 -15 -11 -2 -16 7 -39
12 -49 9 -14 -3 -17 0 -13 12 9 22 -8 29 -33 14 -11 -7 -18 -19 -15 -29 3 -9
1 -27 -5 -40 -10 -23 -10 -23 -5 4 6 28 5 29 -26 22 -36 -8 -33 9 5 26 17 8
15 9 -12 4 -31 -4 -32 -3 -26 23 10 39 12 42 40 42 15 0 24 -6 24 -16z m510
-4 c-8 -5 -17 -7 -19 -4 -3 3 1 9 9 14 8 5 17 7 19 4 3 -3 -1 -9 -9 -14z
m-1447 -33 c-3 -4 1 -15 8 -23 9 -11 9 -18 0 -27 -9 -9 -13 -7 -17 10 -4 12
-15 23 -28 25 -29 4 -27 30 4 45 21 11 26 10 31 -5 4 -9 4 -21 2 -25z m1635
24 c-21 -9 -46 -29 -58 -43 -20 -27 -112 -64 -129 -54 -5 3 -11 -1 -15 -9 -9
-24 -24 -17 -19 9 3 13 12 27 21 29 10 3 28 12 42 20 14 8 50 22 80 32 30 10
59 22 65 26 5 5 18 9 30 8 15 0 10 -5 -17 -18z m-3838 -5 c0 -16 -18 -31 -27
-22 -8 8 5 36 17 36 5 0 10 -6 10 -14z m75 4 c7 -12 -2 -12 -30 0 -19 8 -19 9
2 9 12 1 25 -3 28 -9z m1715 -25 c0 -25 -15 -24 -16 1 -1 13 2 21 7 18 5 -3 9
-11 9 -19z m-1358 -21 c-2 -14 -10 -23 -16 -21 -6 2 -21 -10 -33 -27 -13 -16
-23 -25 -23 -18 0 7 -5 12 -11 12 -6 0 -8 -9 -4 -22 5 -20 5 -21 -5 -5 -15 23
-6 48 15 41 9 -4 18 1 22 12 25 60 65 80 55 28z m1138 17 c0 -11 5 -23 10 -26
6 -3 10 -10 10 -16 0 -5 -4 -9 -10 -9 -5 0 -10 7 -10 15 0 9 -6 18 -14 21 -8
3 -12 12 -9 20 8 21 23 17 23 -5z m-1661 5 c-2 -2 -21 -6 -42 -10 -27 -5 -37
-4 -32 3 3 6 22 11 42 11 20 0 34 -2 32 -4z m136 -6 c3 -5 1 -10 -4 -10 -6 0
-11 5 -11 10 0 6 2 10 4 10 3 0 8 -4 11 -10z m1585 0 c0 -5 -4 -10 -10 -10 -5
0 -10 5 -10 10 0 6 5 10 10 10 6 0 10 -4 10 -10z m318 -15 c1 -14 -3 -25 -8
-25 -6 0 -10 11 -10 25 0 14 4 25 8 25 4 0 9 -11 10 -25z m1572 21 c0 -3 -4
-8 -10 -11 -5 -3 -10 -1 -10 4 0 6 5 11 10 11 6 0 10 -2 10 -4z m-3022 -36
c-10 -31 -28 -50 -24 -28 2 16 25 58 31 58 2 0 -1 -14 -7 -30z m733 10 c13
-19 16 -19 42 -5 25 13 32 13 57 0 21 -11 26 -20 23 -39 -4 -18 0 -25 14 -29
12 -3 9 -5 -9 -6 -19 -1 -28 4 -28 14 0 8 -5 15 -11 15 -6 0 -17 7 -25 15 -19
18 -35 20 -33 3 3 -24 -3 -53 -8 -40 -2 6 -9 12 -15 12 -6 0 -8 -7 -4 -15 8
-21 -17 -19 -44 5 -20 18 -21 20 -5 26 9 4 20 2 25 -5 5 -10 9 -9 13 3 4 9 1
16 -6 17 -28 1 -60 10 -76 20 -14 9 -14 10 2 5 10 -3 28 1 40 9 28 19 32 19
48 -5z m249 16 c0 -11 -19 -15 -25 -6 -3 5 1 10 9 10 9 0 16 -2 16 -4z m-1466
-41 c5 -24 4 -26 -4 -12 -6 9 -16 15 -22 11 -6 -4 -5 3 2 16 14 26 15 25 24
-15z m236 31 c0 -11 -19 -15 -25 -6 -3 5 1 10 9 10 9 0 16 -2 16 -4z m1276
-23 c-10 -10 -19 5 -10 18 6 11 8 11 12 0 2 -7 1 -15 -2 -18z m-690 8 c-3 -5
-14 -11 -25 -14 -14 -3 -18 -1 -14 9 3 8 14 14 25 14 10 0 17 -4 14 -9z m879
-11 c3 -5 1 -10 -4 -10 -6 0 -11 5 -11 10 0 6 2 10 4 10 3 0 8 -4 11 -10z
m1735 -5 c-7 -8 -19 -15 -26 -15 -8 0 -11 6 -8 15 4 8 15 15 26 15 17 0 18 -3
8 -15z m-3370 -5 c0 -5 -4 -10 -10 -10 -5 0 -10 5 -10 10 0 6 5 10 10 10 6 0
10 -4 10 -10z m110 0 c0 -5 -5 -10 -11 -10 -5 0 -7 5 -4 10 3 6 8 10 11 10 2
0 4 -4 4 -10z m120 -21 c15 -27 14 -28 -37 -26 -37 1 -47 -1 -45 -12 3 -12 0
-12 -12 -1 -22 18 -20 39 3 33 10 -3 21 2 24 10 8 21 56 18 67 -4z m570 6 c0
-8 -4 -15 -9 -15 -5 0 -11 7 -15 15 -3 9 0 15 9 15 8 0 15 -7 15 -15z m654
-55 c-5 -5 -9 8 -10 33 l-1 42 10 -33 c6 -20 6 -36 1 -42z m636 60 c0 -5 -4
-10 -10 -10 -5 0 -10 5 -10 10 0 6 5 10 10 10 6 0 10 -4 10 -10z m1430 -11 c0
-5 -4 -9 -10 -9 -5 0 -10 7 -10 16 0 8 5 12 10 9 6 -3 10 -10 10 -16z m-1935
-61 c-4 -40 -8 -84 -9 -98 -1 -21 -6 -25 -33 -25 -20 0 -38 -8 -48 -20 -9 -11
-14 -15 -11 -9 3 6 -1 26 -10 43 -16 33 -13 61 6 61 7 0 9 -9 5 -22 -4 -16 -4
-19 3 -9 8 11 12 10 21 -5 6 -11 11 -13 11 -6 0 6 11 12 25 12 22 0 25 4 25
34 0 68 -28 89 -53 39 l-14 -27 -12 22 c-10 19 -9 22 8 22 11 0 23 5 26 10 3
6 17 10 30 10 18 0 22 4 18 20 -3 12 0 20 7 20 10 0 11 -17 5 -72z m265 61 c0
-5 -4 -7 -10 -4 -6 3 -7 -1 -4 -9 4 -10 -1 -18 -10 -22 -22 -8 -26 -3 -19 24
5 22 43 32 43 11z m-490 -3 c0 -3 -4 -8 -10 -11 -5 -3 -10 -1 -10 4 0 6 5 11
10 11 6 0 10 -2 10 -4z m-1247 -33 c6 -32 -10 -47 -30 -28 -20 21 -17 55 6 55
12 0 20 -9 24 -27z m232 -2 c-3 -12 -11 -21 -16 -21 -6 0 -8 3 -6 8 2 4 7 16
11 26 9 25 20 13 11 -13z m92 11 c1 -10 -5 -19 -13 -19 -14 0 -19 19 -7 30 11
12 19 8 20 -11z m2937 2 c3 -8 10 -12 16 -9 5 3 10 2 10 -4 0 -5 -4 -13 -10
-16 -5 -3 -10 -2 -10 4 0 5 -9 13 -20 16 -11 4 -18 11 -15 16 9 14 22 11 29
-7z m-64 -9 c-27 -14 -36 -13 -25 4 3 6 16 11 28 11 21 -1 21 -1 -3 -15z
m-2462 -36 c3 -27 1 -31 -9 -22 -17 16 -21 65 -6 60 7 -2 13 -19 15 -38z m562
24 c0 -10 3 -29 7 -42 5 -20 3 -23 -12 -18 -12 5 -16 3 -12 -6 4 -10 -4 -13
-29 -12 -35 2 -61 15 -31 15 24 0 62 41 59 62 -2 10 2 18 7 18 6 0 11 -8 11
-17z m1825 -1 c-3 -3 -11 0 -18 7 -9 10 -8 11 6 5 10 -3 15 -9 12 -12z m-2248
-32 c10 0 13 -6 9 -16 -3 -9 -6 -21 -6 -28 0 -19 -42 -35 -67 -25 -29 10 -30
44 -3 61 11 7 20 22 21 33 0 19 1 19 16 -2 8 -13 22 -23 30 -23z m340 34 c-3
-3 -12 -4 -19 -1 -8 3 -5 6 6 6 11 1 17 -2 13 -5z m1840 -10 c-3 -3 -12 -4
-19 -1 -8 3 -5 6 6 6 11 1 17 -2 13 -5z m-2967 -44 c-18 -11 -24 -6 -16 16 5
14 9 15 19 5 9 -9 9 -14 -3 -21z m-395 -6 c33 -22 31 -29 -8 -31 -29 -1 -33 2
-31 20 1 12 3 23 3 25 2 5 13 1 36 -14z m3425 6 c0 -5 -5 -10 -11 -10 -5 0 -7
5 -4 10 3 6 8 10 11 10 2 0 4 -4 4 -10z m-3346 -22 c11 -10 16 -21 11 -25 -4
-5 -10 -2 -12 5 -3 6 -13 12 -24 12 -10 0 -19 7 -19 15 0 19 18 16 44 -7z
m366 -14 c0 -8 9 -14 20 -14 23 0 26 -13 7 -28 -10 -9 -18 -1 -36 35 -16 34
-18 43 -7 34 9 -8 16 -20 16 -27z m602 -6 c-6 -6 -15 -8 -19 -4 -4 4 -1 11 7
16 19 12 27 3 12 -12z m858 12 c0 -5 -7 -7 -15 -4 -8 4 -15 8 -15 10 0 2 7 4
15 4 8 0 15 -4 15 -10z m1455 1 c-12 -12 -65 -26 -65 -17 0 3 15 10 33 15 43
12 42 12 32 2z m-2448 -26 c-15 -16 -19 -13 -11 9 3 9 10 13 15 10 5 -3 3 -11
-4 -19z m90 -1 c-3 -3 -12 -4 -19 -1 -8 3 -5 6 6 6 11 1 17 -2 13 -5z m493 -4
c0 -5 -5 -10 -11 -10 -5 0 -7 5 -4 10 3 6 8 10 11 10 2 0 4 -4 4 -10z m-465
-10 c-3 -5 -12 -10 -18 -10 -7 0 -6 4 3 10 19 12 23 12 15 0z m633 -40 c1 -19
5 -42 8 -50 3 -8 5 -17 4 -19 -1 -2 4 -7 11 -11 7 -5 13 -19 15 -32 1 -12 3
-24 3 -26 1 -1 10 2 22 8 15 9 18 15 9 24 -11 14 -7 33 18 84 18 35 33 40 52
17 10 -13 9 -15 -8 -15 -34 0 -35 -18 -2 -35 16 -8 30 -22 30 -30 0 -8 9 -24
21 -36 27 -27 38 -139 14 -139 -8 0 -15 6 -16 13 0 6 -5 1 -10 -12 -6 -15 -14
-21 -25 -17 -9 3 -21 6 -29 6 -7 0 -15 9 -18 20 -3 11 -10 20 -17 20 -6 0 -8
-5 -5 -10 8 -14 -4 -50 -17 -50 -6 0 -8 10 -4 25 11 44 -22 29 -48 -22 -18
-35 -24 -41 -22 -23 1 14 9 36 18 50 23 37 31 90 14 90 -8 0 -16 -6 -19 -12
-9 -23 -24 36 -17 63 6 20 3 28 -11 37 -26 17 -49 15 -49 -3 0 -12 -7 -14 -27
-9 -37 9 -37 9 -40 51 -2 34 -1 35 28 31 25 -4 28 -2 23 14 -6 21 26 38 66 35
21 -2 25 -8 28 -37z m458 24 c-3 -9 -6 -18 -6 -20 0 -3 -4 -3 -10 1 -11 7 -2
35 12 35 6 0 7 -7 4 -16z m-994 -29 c-5 -18 -11 -25 -15 -18 -4 7 -2 21 5 32
16 26 19 22 10 -14z m863 15 c3 -5 1 -10 -4 -10 -6 0 -11 5 -11 10 0 6 2 10 4
10 3 0 8 -4 11 -10z m1160 -5 c-16 -8 -37 -14 -45 -14 -8 0 -1 7 15 14 17 8
37 14 45 14 8 0 2 -7 -15 -14z m-2927 -30 c-11 -20 -22 -34 -25 -32 -5 6 30
67 39 67 4 0 -2 -16 -14 -35z m2892 -10 c0 -8 -4 -15 -10 -15 -5 0 -7 7 -4 15
4 8 8 15 10 15 2 0 4 -7 4 -15z m-95 -5 c-3 -5 -11 -10 -16 -10 -6 0 -7 5 -4
10 3 6 11 10 16 10 6 0 7 -4 4 -10z m-1711 -35 c-10 -8 -23 -14 -29 -14 -5 0
-1 6 9 14 11 8 24 15 30 15 5 0 1 -7 -10 -15z m1697 -7 c-16 -16 -25 -19 -28
-11 -6 16 -57 -9 -72 -34 -10 -17 -10 -17 -11 0 0 9 -3 17 -7 17 -12 0 -40
-20 -29 -20 5 0 1 -9 -9 -20 -10 -11 -22 -20 -26 -20 -13 0 2 33 23 52 19 16
112 44 135 40 6 -2 14 2 18 8 3 5 11 10 18 10 6 0 1 -10 -12 -22z m-1046 2 c3
-5 2 -10 -4 -10 -5 0 -13 5 -16 10 -3 6 -2 10 4 10 5 0 13 -4 16 -10z m955 6
c0 -2 -21 -11 -47 -21 -98 -36 -136 -57 -123 -65 23 -14 4 -34 -36 -36 -33 -2
-36 -1 -15 7 32 12 24 18 -16 12 -24 -4 -33 -11 -33 -24 0 -16 -5 -18 -25 -13
-14 3 -25 2 -25 -4 0 -5 -10 -12 -21 -15 -17 -5 -20 -11 -17 -31 7 -37 -17
-33 -31 4 -10 29 -31 42 -31 19 0 -6 -7 -9 -15 -5 -8 3 -15 4 -15 2 0 -3 -3
-12 -6 -21 -6 -14 -2 -15 30 -10 29 6 36 4 36 -9 0 -10 -6 -13 -15 -10 -8 4
-15 1 -15 -5 0 -6 -11 -8 -29 -5 -16 4 -43 0 -62 -9 -57 -25 -67 -26 -79 -11
-10 11 -9 14 3 14 9 0 18 8 22 19 3 11 23 23 50 31 25 7 45 16 45 20 0 5 19
11 43 15 23 4 54 14 69 21 15 8 35 16 45 17 10 2 31 9 46 15 16 7 36 12 44 12
9 0 25 8 36 18 28 25 187 84 187 68z m-1428 -68 c27 -27 30 -61 5 -66 -19 -4
-23 8 -8 24 14 13 -46 16 -70 3 -16 -8 -19 -6 -19 11 0 11 5 20 10 20 6 0 10
7 10 15 0 23 46 18 72 -7z m-262 -18 c0 -5 -5 -10 -11 -10 -5 0 -7 5 -4 10 3
6 8 10 11 10 2 0 4 -4 4 -10z m2890 4 c0 -3 -6 -12 -14 -19 -17 -18 -29 -8
-13 11 12 14 27 18 27 8z m-68 -36 c-7 -7 -12 -8 -12 -2 0 6 3 14 7 17 3 4 9
5 12 2 2 -3 -1 -11 -7 -17z m-37 2 c3 -5 -1 -10 -9 -10 -9 0 -16 5 -16 10 0 6
4 10 9 10 6 0 13 -4 16 -10z m-2611 -25 c15 -11 17 -17 7 -29 -13 -16 -81 -18
-81 -2 0 16 13 32 30 39 22 8 23 8 44 -8z m213 -42 c-3 -10 -5 -4 -5 12 0 17
2 24 5 18 2 -7 2 -21 0 -30z m2423 27 c0 -5 -2 -10 -4 -10 -3 0 -8 5 -11 10
-3 6 -1 10 4 10 6 0 11 -4 11 -10z m-2830 -36 c0 -8 -5 -12 -10 -9 -6 4 -8 11
-5 16 9 14 15 11 15 -7z m1573 9 c-7 -2 -19 -2 -25 0 -7 3 -2 5 12 5 14 0 19
-2 13 -5z m834 -40 c-3 -10 -5 -2 -5 17 0 19 2 27 5 18 2 -10 2 -26 0 -35z
m-2232 17 c3 -5 -1 -10 -9 -10 -9 0 -16 5 -16 10 0 6 4 10 9 10 6 0 13 -4 16
-10z m952 -6 c-3 -3 -12 -4 -19 -1 -8 3 -5 6 6 6 11 1 17 -2 13 -5z m358 -4
c-3 -5 -10 -10 -16 -10 -5 0 -9 5 -9 10 0 6 7 10 16 10 8 0 12 -4 9 -10z
m-395 -10 c0 -5 -4 -10 -10 -10 -5 0 -10 -6 -10 -14 0 -8 -5 -18 -11 -22 -18
-10 -78 -14 -84 -4 -7 11 24 22 46 15 9 -3 20 -1 24 4 3 7 0 8 -9 5 -9 -3 -16
-1 -16 5 0 6 9 11 20 11 11 0 20 5 20 10 0 6 7 10 15 10 8 0 15 -4 15 -10z
m-1370 -9 c0 -6 -4 -13 -10 -16 -5 -3 -10 1 -10 9 0 9 5 16 10 16 6 0 10 -4
10 -9z m3133 -16 c-5 -16 -25 -20 -36 -8 -8 7 25 33 35 27 4 -3 5 -11 1 -19z
m-1383 7 c0 -4 14 -13 30 -19 19 -7 30 -18 30 -30 0 -16 -2 -16 -18 4 -9 12
-29 25 -45 29 -34 8 -46 24 -18 24 12 0 21 -4 21 -8z m1326 -8 c-3 -9 -6 -18
-6 -20 0 -2 -9 -4 -21 -4 -15 0 -19 -5 -15 -15 4 -12 2 -13 -14 -2 -28 17 -25
37 4 37 14 0 28 5 31 10 10 16 28 11 21 -6z m-389 -74 c-3 -50 -1 -80 5 -80 6
0 8 7 4 15 -3 8 3 19 14 25 26 14 40 13 40 -4 0 -9 7 -12 20 -9 15 4 19 11 15
24 -4 11 -3 19 2 20 26 2 62 11 93 22 37 14 70 12 70 -4 0 -5 -8 -13 -17 -16
-10 -4 -22 -13 -27 -21 -5 -10 -18 -12 -41 -8 -23 5 -36 2 -45 -10 -12 -13
-11 -17 1 -25 8 -5 20 -9 27 -9 18 0 15 -8 -18 -40 -17 -17 -27 -30 -23 -30 4
0 -7 -9 -24 -20 -34 -20 -41 -34 -23 -45 6 -3 10 -1 10 4 0 6 8 11 17 11 15 0
15 -3 -3 -21 -17 -16 -26 -19 -40 -11 -53 28 -116 52 -125 46 -16 -10 9 -33
30 -27 10 3 22 0 25 -6 5 -7 -1 -10 -15 -8 -12 1 -24 -4 -26 -10 -6 -15 16
-17 51 -3 33 12 43 -4 15 -24 -12 -8 -19 -18 -16 -23 3 -4 -1 -16 -8 -26 -11
-16 -14 -16 -41 5 -16 12 -32 28 -36 34 -6 9 -18 9 -52 -1 -24 -8 -47 -11 -50
-8 -11 11 -6 23 9 23 8 0 15 6 15 13 0 7 14 18 30 24 39 15 41 38 3 28 -16 -4
-44 -11 -63 -14 -22 -4 -31 -9 -22 -14 18 -12 16 -67 -4 -67 -8 0 -12 -4 -9
-10 4 -6 -5 -10 -20 -10 -25 0 -27 3 -21 28 4 15 14 32 22 39 11 8 12 13 4 18
-21 13 -50 -25 -43 -56 3 -18 1 -29 -6 -29 -6 0 -11 7 -11 15 0 8 -4 15 -10
15 -5 0 -10 -6 -10 -13 0 -8 -10 -19 -22 -25 -22 -10 -21 -11 9 -11 47 -1 48
-15 3 -35 -22 -10 -40 -24 -40 -32 0 -8 -5 -12 -10 -9 -8 5 -7 11 1 21 9 11 6
16 -14 23 -39 15 -49 41 -26 70 13 15 17 31 13 45 -9 29 -8 29 -48 6 -44 -24
-46 -24 -46 -5 0 8 -5 15 -11 15 -6 0 -9 8 -7 17 3 14 20 20 81 29 42 5 77 7
77 3 0 -16 33 -18 55 -3 13 9 57 20 96 25 84 10 129 28 129 49 0 17 42 60 59
60 7 0 11 22 11 58 0 53 5 72 18 72 2 0 2 -36 -1 -80z m-1982 23 c-21 -51 -25
-52 -25 -9 0 20 4 35 9 31 5 -3 12 -1 16 5 14 23 14 7 0 -27z m65 17 c0 -11
-7 -20 -15 -20 -18 0 -19 12 -3 28 16 16 18 15 18 -8z m-800 0 c0 -5 -7 -10
-16 -10 -8 0 -12 5 -9 10 3 6 10 10 16 10 5 0 9 -4 9 -10z m1210 -20 c0 -5 -6
-10 -12 -10 -9 0 -8 -4 2 -10 13 -9 13 -12 -3 -25 -11 -7 -25 -11 -33 -8 -8 3
-14 -1 -14 -10 0 -21 -36 -31 -53 -15 -24 22 0 56 52 72 59 18 61 18 61 6z
m1980 -32 c-25 -23 -31 -21 -24 9 4 15 11 19 25 16 20 -5 20 -6 -1 -25z
m-2618 -10 c-7 -7 -12 -8 -12 -2 0 14 12 26 19 19 2 -3 -1 -11 -7 -17z m486
-1 c-27 -10 -30 -17 -32 -61 -2 -27 -22 -31 -29 -6 -5 20 -6 20 -31 -3 -14
-14 -26 -30 -26 -36 0 -7 -5 -9 -11 -5 -6 3 -9 15 -6 25 6 21 -9 24 -33 9 -10
-6 -11 -10 -2 -10 6 0 12 -7 12 -15 0 -19 -9 -19 -32 2 -17 15 -18 15 -18 -10
0 -22 -5 -26 -42 -32 -24 -4 -56 -13 -71 -20 -24 -12 -29 -12 -34 1 -3 8 5 26
17 39 12 13 20 30 17 38 -6 16 19 40 46 45 9 2 17 -2 17 -8 0 -5 7 -10 16 -10
11 0 15 -6 11 -19 -4 -17 -1 -16 31 5 19 13 45 24 58 24 25 0 71 17 94 36 14
12 44 22 65 22 6 0 -2 -5 -17 -11z m2082 3 c-17 -11 -6 -25 25 -33 12 -3 6 -5
-15 -6 -33 -1 -60 13 -60 30 0 8 23 16 50 18 13 1 13 0 0 -9z m-3175 -20 c3
-5 1 -10 -4 -10 -6 0 -11 5 -11 10 0 6 2 10 4 10 3 0 8 -4 11 -10z m731 -45
c-10 -24 -21 -47 -26 -50 -6 -4 1 25 26 94 2 8 7 11 11 8 3 -4 -2 -27 -11 -52z
m2354 37 c0 -15 -35 -37 -55 -34 -16 2 -17 1 -5 -7 20 -14 10 -20 -21 -14 -21
4 -25 9 -21 28 2 13 12 26 21 28 28 8 81 7 81 -1z m-125 -12 c-3 -5 -14 -10
-23 -10 -15 0 -15 2 -2 10 20 13 33 13 25 0z m-2919 -35 c0 -16 -5 -40 -13
-54 l-13 -26 -6 23 c-4 12 -10 22 -15 22 -5 0 -9 4 -9 9 0 5 9 7 20 4 15 -4
19 -2 14 10 -3 8 0 18 6 22 9 6 9 10 -1 17 -12 8 -11 9 1 6 8 -3 15 -17 16
-33z m2034 5 c0 -5 -7 -10 -15 -10 -8 0 -15 5 -15 10 0 6 7 10 15 10 8 0 15
-4 15 -10z m1143 -24 c12 4 17 1 17 -12 0 -26 -20 -53 -27 -36 -7 17 -24 15
-17 -3 4 -8 16 -15 29 -15 23 0 36 -18 34 -48 -1 -10 -4 -6 -8 8 -7 24 -11 25
-73 24 -37 0 -66 2 -66 5 2 22 -5 28 -22 24 -15 -4 -20 0 -21 13 -1 11 -5 3
-10 -16 -4 -19 -6 -42 -4 -50 3 -10 -7 -20 -27 -29 -28 -13 -32 -12 -45 5 -12
17 -12 19 4 22 10 2 22 8 28 13 6 6 -12 7 -48 3 -61 -7 -67 -3 -39 25 21 22
101 29 114 9 7 -9 8 -8 4 5 -10 30 11 54 49 59 19 2 35 0 35 -4 0 -4 -9 -8
-19 -8 -29 0 -34 -17 -8 -24 14 -3 26 0 33 9 16 21 24 19 24 -6 0 -19 1 -19
16 -4 15 15 15 17 0 34 -25 27 -19 37 7 12 15 -13 30 -19 40 -15z m-1983 20
c0 -3 -4 -8 -10 -11 -5 -3 -10 -1 -10 4 0 6 5 11 10 11 6 0 10 -2 10 -4z
m-210 -20 c0 -3 -4 -8 -10 -11 -5 -3 -10 -1 -10 4 0 6 5 11 10 11 6 0 10 -2
10 -4z m1930 0 c0 -2 -3 -11 -6 -20 -5 -12 -9 -13 -19 -3 -7 7 -11 15 -8 20 4
7 33 10 33 3z m-2440 -16 c0 -5 -7 -7 -15 -4 -8 4 -15 8 -15 10 0 2 7 4 15 4
8 0 15 -4 15 -10z m580 0 c0 -5 -5 -10 -11 -10 -5 0 -7 5 -4 10 3 6 8 10 11
10 2 0 4 -4 4 -10z m1036 -25 c17 -16 14 -18 -10 -9 -9 3 -16 10 -16 15 0 13
9 11 26 -6z m-1453 -22 c-3 -10 -11 -22 -17 -28 -22 -19 -47 -66 -41 -75 7
-12 -41 -32 -64 -28 -10 2 -3 11 22 25 34 21 51 53 27 53 -5 0 -10 -5 -10 -10
0 -6 -8 -10 -17 -8 -12 2 -18 -3 -17 -14 1 -10 -4 -18 -12 -18 -18 0 -19 54
-1 67 6 6 33 16 60 23 26 7 50 17 53 21 10 16 23 9 17 -8z m1523 -31 c-6 -5
-36 23 -36 34 0 4 9 -1 20 -11 11 -10 18 -20 16 -23z m-1200 -7 c0 -19 -3 -29
-7 -23 -9 14 -10 12 -28 -17 -11 -19 -12 -18 -5 4 4 17 3 21 -6 16 -8 -5 -11
-3 -8 6 3 8 11 13 17 12 6 -2 16 6 23 17 7 11 13 20 13 20 1 0 1 -16 1 -35z
m-976 -15 c0 -5 -2 -10 -4 -10 -3 0 -8 5 -11 10 -3 6 -1 10 4 10 6 0 11 -4 11
-10z m714 1 c7 -11 -14 -20 -31 -13 -7 2 -10 8 -7 13 7 12 31 12 38 0z m2410
-6 c4 -11 -1 -15 -19 -15 -24 0 -32 10 -18 23 11 12 31 8 37 -8z m66 1 c0 -2
-7 -6 -15 -10 -8 -3 -15 -1 -15 4 0 6 7 10 15 10 8 0 15 -2 15 -4z m-3140 -48
c-1 -34 -3 -39 -11 -26 -8 15 -3 68 7 68 2 0 4 -19 4 -42z m685 23 c-6 -4 -23
-11 -40 -15 l-30 -6 25 15 c27 16 60 21 45 6z m2188 -18 c-5 -12 -3 -14 7 -8
9 5 11 4 6 -3 -11 -19 -26 -14 -26 8 0 11 4 20 10 20 5 0 6 -7 3 -17z m199 -4
c-4 -4 -20 -9 -35 -13 -24 -6 -27 -5 -15 7 7 8 23 14 35 13 12 0 19 -4 15 -7z
m-3937 -9 c-3 -5 -14 -10 -23 -9 -14 0 -13 2 3 9 27 11 27 11 20 0z m3085 0
c0 -5 -2 -10 -4 -10 -3 0 -8 5 -11 10 -3 6 -1 10 4 10 6 0 11 -4 11 -10z m930
-16 c0 -8 -7 -14 -15 -14 -17 0 -18 2 -9 24 7 18 24 12 24 -10z m-442 -22
c-10 -2 -18 -10 -18 -18 0 -8 -5 -14 -11 -14 -10 0 -5 13 14 37 5 7 14 10 21
6 7 -5 5 -9 -6 -11z m167 8 c3 -5 1 -10 -5 -10 -6 0 -10 -7 -8 -17 3 -17 -47
-37 -65 -26 -14 9 22 33 39 26 9 -3 14 2 14 16 0 22 14 28 25 11z m-2275 -4
c0 -2 -7 -7 -16 -10 -8 -3 -12 -2 -9 4 6 10 25 14 25 6z m2166 -23 c-27 -14
-37 -39 -11 -29 22 8 5 -22 -28 -51 -24 -20 -26 -20 -40 -5 -13 14 -13 19 -1
30 7 6 20 12 29 12 12 0 15 6 10 20 -8 26 13 48 43 42 l25 -5 -27 -14z m264 7
c0 -17 -24 -22 -53 -11 -21 8 -31 6 -52 -11 -30 -24 -41 -19 -25 11 9 18 20
21 70 21 35 0 60 -4 60 -10z m-2633 -32 c-3 -8 -6 -5 -6 6 -1 11 2 17 5 13 3
-3 4 -12 1 -19z m452 -20 c-10 -18 -9 -20 5 -15 22 9 20 -6 -3 -27 -19 -17
-19 -17 -17 16 5 57 6 59 16 53 7 -4 6 -13 -1 -27z m-379 17 c0 -7 -44 -96
-61 -122 -20 -32 -33 -29 -53 13 -19 40 -17 48 8 38 11 -4 15 -14 12 -31 -8
-43 17 -20 49 45 25 52 45 77 45 57z m2624 -9 c-5 -13 -44 -30 -44 -19 0 7 33
32 42 33 4 0 5 -6 2 -14z m-2384 -6 c0 -5 -8 -10 -17 -10 -15 0 -16 2 -3 10
19 12 20 12 20 0z m-1570 -19 c0 -24 -26 -47 -33 -29 -5 16 10 48 23 48 6 0
10 -8 10 -19z m3415 9 c-3 -5 -13 -10 -22 -10 -9 0 -13 -6 -10 -14 6 -15 -22
-46 -41 -46 -7 0 -12 9 -12 20 0 14 7 20 23 21 12 0 16 3 10 6 -20 8 -15 21
10 26 40 8 48 7 42 -3z m-3342 -25 c18 -26 16 -29 -25 -39 -28 -6 -29 -2 -14
42 9 28 17 27 39 -3z m1362 -13 c-6 -7 -45 9 -45 18 0 4 11 3 24 -3 14 -7 23
-13 21 -15z m1838 8 c3 -13 10 -18 21 -14 9 3 16 1 16 -5 0 -6 -6 -11 -12 -12
-7 -1 -24 -2 -37 -2 -32 -2 -36 -18 -12 -45 14 -18 24 -21 42 -14 38 13 94 4
77 -13 -13 -13 -112 -15 -120 -3 -5 10 -10 10 -18 2 -13 -13 -50 -7 -50 7 0 4
10 14 22 20 21 12 21 12 -7 26 -21 12 -25 17 -14 24 8 5 21 9 29 9 8 0 21 9
28 20 16 25 28 25 35 0z m710 -1 c-6 -6 -19 -9 -29 -6 -17 3 -16 5 6 14 28 12
39 8 23 -8z m-2893 -9 c0 -7 -49 -44 -51 -38 -7 26 -4 40 9 47 17 9 42 4 42
-9z m1164 -5 c4 -12 10 -13 31 -3 40 18 75 -2 70 -41 -3 -21 0 -31 9 -31 7 0
23 -9 36 -20 16 -13 37 -20 67 -20 24 0 58 -8 76 -17 18 -9 36 -17 42 -18 5 0
10 -7 11 -15 1 -8 2 -25 2 -38 1 -14 11 -26 29 -33 25 -9 52 -35 53 -51 0 -3
-24 -8 -52 -11 -76 -7 -167 -26 -192 -39 -56 -29 -103 -108 -109 -183 -3 -27
-11 -70 -20 -95 -8 -25 -20 -81 -27 -124 -8 -55 -19 -90 -36 -111 -32 -43 -66
-60 -91 -47 -15 8 -29 6 -60 -10 -47 -24 -47 -46 -1 -55 l29 -6 -30 -28 c-17
-15 -31 -37 -31 -48 0 -14 -5 -19 -15 -15 -9 4 -15 0 -15 -10 0 -9 6 -13 13
-10 8 3 20 -2 27 -11 17 -20 29 -19 23 3 -5 20 -3 20 101 23 35 0 69 -2 75 -5
20 -13 12 -25 -21 -34 -18 -5 -32 -14 -31 -21 2 -6 -12 -11 -35 -12 -20 0 -88
-2 -149 -5 -62 -3 -113 -2 -113 1 0 3 7 16 15 29 14 21 14 25 0 40 -13 13 -20
13 -35 4 -29 -18 -45 2 -22 28 42 46 61 76 55 90 -7 20 -17 18 -44 -11 -13
-13 -29 -25 -36 -25 -19 0 -53 -69 -53 -108 0 -21 7 -47 15 -58 8 -12 12 -24
9 -27 -3 -3 4 -8 15 -12 12 -3 26 -15 32 -26 8 -16 14 -18 24 -9 10 8 21 6 47
-10 40 -24 48 -25 48 -5 0 8 5 15 10 15 6 0 10 5 10 11 0 31 28 38 164 37 91
0 136 -4 136 -11 0 -7 4 -7 12 1 18 18 48 15 48 -5 0 -13 3 -14 12 -5 7 7 15
12 19 12 11 0 19 -29 13 -45 -8 -21 -34 -19 -34 3 -1 16 -1 16 -11 -1 -7 -12
-17 -16 -30 -12 -11 4 -19 2 -19 -4 0 -6 5 -11 11 -11 5 0 8 -4 5 -8 -7 -12
38 -9 46 3 5 6 8 4 8 -4 0 -18 -24 -37 -76 -61 -23 -10 -45 -24 -49 -31 -5 -7
-4 -10 3 -5 6 3 13 2 17 -4 4 -6 -16 -10 -54 -10 -34 0 -61 -4 -61 -10 0 -5 6
-10 13 -10 6 0 1 -6 -13 -13 -21 -11 -26 -11 -31 2 -4 11 -9 9 -22 -10 -16
-23 -16 -25 0 -36 44 -29 63 -49 63 -65 0 -15 4 -16 26 -8 35 14 44 12 38 -5
-4 -8 -10 -13 -15 -10 -4 3 -18 0 -31 -6 -13 -7 -30 -15 -38 -19 -8 -4 -18
-18 -22 -31 -7 -22 -7 -22 -4 4 5 37 -17 30 -24 -8 -4 -25 -10 -29 -35 -28
-59 1 -64 3 -67 26 -2 17 -9 22 -35 22 -39 0 -50 10 -33 30 15 18 -1 20 -18 3
-9 -9 -12 -7 -13 12 -1 14 -1 28 0 33 1 4 -8 2 -20 -5 -14 -9 -19 -20 -15 -38
2 -14 -1 -33 -8 -42 -14 -18 -27 -24 -25 -10 3 20 -2 32 -12 26 -8 -5 -10 1
-7 20 3 15 1 26 -6 26 -6 0 -4 5 4 11 10 7 11 12 4 15 -6 3 -20 12 -30 20 -17
14 -17 15 -1 10 9 -3 25 -9 35 -12 16 -5 16 -5 0 9 -10 8 -18 21 -18 30 0 20
-17 31 -23 15 -3 -8 -6 -6 -6 5 -1 15 -5 16 -21 7 -16 -8 -20 -8 -20 4 0 7 -7
17 -16 20 -8 3 -13 10 -9 15 3 5 0 13 -5 16 -24 15 -58 167 -62 275 -1 54 -2
54 -5 10 -3 -25 -8 -49 -13 -53 -12 -13 -50 11 -50 31 -1 9 -10 42 -20 72 -17
45 -21 86 -23 225 -3 176 2 205 36 205 10 0 16 -4 12 -9 -3 -5 4 -12 14 -16
13 -4 18 -12 14 -22 -3 -8 0 -19 8 -24 8 -4 19 -30 24 -56 l11 -48 19 75 c14
57 19 114 20 235 1 142 3 164 22 200 12 22 28 56 37 76 22 51 49 71 103 77 48
4 113 35 113 53 0 5 29 7 68 4 57 -4 74 -2 110 17 23 13 42 26 42 30 0 3 10 4
22 0 14 -3 19 -2 14 6 -4 7 -1 12 7 12 8 0 17 -7 21 -15z m1206 -6 c0 -11 -4
-17 -10 -14 -5 3 -10 2 -10 -2 0 -5 -16 -10 -35 -11 -19 -2 -35 0 -35 3 0 5
77 44 88 45 1 0 2 -9 2 -21z m-1807 -1 c-4 -7 -9 -24 -11 -37 -4 -32 -31 -81
-32 -61 -1 8 -8 2 -15 -15 -11 -23 -14 -25 -15 -10 0 11 9 35 20 53 11 18 20
41 20 52 0 10 8 21 18 23 9 3 18 5 20 6 2 0 0 -5 -5 -11z m-989 -24 c9 -3 16
-12 16 -19 0 -25 -15 -24 -27 1 -12 26 -12 27 11 18z m3061 -5 c3 -3 -2 -13
-11 -20 -12 -10 -17 -10 -23 0 -6 9 -15 9 -36 1 -34 -13 -47 -3 -21 15 19 15
83 17 91 4z m-310 -27 c-3 -3 -11 0 -18 7 -9 10 -8 11 6 5 10 -3 15 -9 12 -12z
m-2345 -22 c0 -5 -2 -10 -4 -10 -3 0 -8 5 -11 10 -3 6 -1 10 4 10 6 0 11 -4
11 -10z m2805 1 c3 -5 1 -12 -5 -16 -5 -3 -10 1 -10 9 0 18 6 21 15 7z m55
-36 c0 -8 -7 -15 -15 -15 -16 0 -20 12 -8 23 11 12 23 8 23 -8z m-3072 -7 c15
-15 15 -35 0 -52 -10 -10 -15 -9 -29 7 -28 36 -2 76 29 45z m259 6 c-3 -3 -12
-4 -19 -1 -8 3 -5 6 6 6 11 1 17 -2 13 -5z m2486 -19 c-3 -9 -8 -14 -10 -11
-3 3 -2 9 2 15 9 16 15 13 8 -4z m126 6 c24 -15 -32 -45 -58 -31 -27 14 -26
19 2 30 29 11 39 12 56 1z m126 -11 c8 -13 -43 -32 -66 -25 -28 9 -23 26 5 19
13 -3 27 -1 30 5 9 14 23 14 31 1z m155 -42 c0 -15 -3 -17 -19 -8 -13 6 -17
17 -14 30 4 16 8 18 19 9 8 -6 14 -20 14 -31z m-3320 22 c0 -5 -5 -10 -11 -10
-5 0 -7 5 -4 10 3 6 8 10 11 10 2 0 4 -4 4 -10z m2760 3 c0 -5 -4 -14 -9 -21
-6 -10 -11 -9 -22 4 -9 12 -10 15 -1 10 6 -4 12 -2 12 3 0 6 5 11 10 11 6 0
10 -3 10 -7z m477 1 c-3 -3 -12 -4 -19 -1 -8 3 -5 6 6 6 11 1 17 -2 13 -5z
m-437 -14 c0 -5 -4 -10 -10 -10 -5 0 -10 5 -10 10 0 6 5 10 10 10 6 0 10 -4
10 -10z m560 0 c0 -5 -4 -10 -10 -10 -5 0 -10 5 -10 10 0 6 5 10 10 10 6 0 10
-4 10 -10z m-160 -37 c0 -7 -5 -13 -11 -13 -5 0 -7 5 -4 10 11 17 -7 11 -21
-7 -10 -14 -15 -15 -25 -6 -9 9 -8 15 5 28 9 9 16 13 16 9 0 -5 5 -3 12 4 13
13 28 -1 28 -25z m-3094 -10 c-11 -11 -17 4 -9 23 7 18 8 18 11 1 2 -10 1 -21
-2 -24z m2831 20 c-9 -9 -20 -13 -24 -9 -4 4 -1 11 7 16 25 16 35 11 17 -7z
m328 7 c-3 -5 -16 -15 -28 -21 -22 -12 -22 -12 -3 10 19 21 43 30 31 11z
m-665 -19 c0 -12 -20 -25 -27 -18 -7 7 6 27 18 27 5 0 9 -4 9 -9z m516 -29
c-22 -5 -30 3 -21 18 5 8 11 7 22 -2 15 -12 14 -13 -1 -16z m-533 -77 c-10 -8
-28 -15 -41 -15 -21 0 -22 2 -8 15 8 8 22 15 30 15 9 0 16 8 16 18 1 16 1 16
11 -1 9 -14 7 -22 -8 -32z m-73 16 c0 -22 -15 -35 -29 -27 -13 9 -1 46 15 46
8 0 14 -9 14 -19z m190 9 c0 -5 -5 -10 -11 -10 -5 0 -7 5 -4 10 3 6 8 10 11
10 2 0 4 -4 4 -10z m138 -9 c3 -8 -1 -12 -9 -9 -7 2 -15 10 -17 17 -3 8 1 12
9 9 7 -2 15 -10 17 -17z m167 0 c-3 -6 -11 -8 -17 -5 -6 4 -5 9 3 15 16 10 23
4 14 -10z m285 -19 c0 -13 -12 -22 -22 -16 -10 6 -1 24 13 24 5 0 9 -4 9 -8z
m-392 -27 c-3 -3 -9 2 -12 12 -6 14 -5 15 5 6 7 -7 10 -15 7 -18z m352 11 c0
-3 -4 -8 -10 -11 -5 -3 -10 -1 -10 4 0 6 5 11 10 11 6 0 10 -2 10 -4z m-4180
-45 c-6 -12 -15 -21 -21 -21 -5 0 -2 11 7 25 20 30 31 26 14 -4z m4110 14 c0
-1 -12 -2 -26 -2 -17 0 -22 2 -13 7 10 7 39 3 39 -5z m40 1 c0 -2 -7 -9 -15
-16 -13 -11 -14 -10 -9 4 5 14 24 23 24 12z m-3076 -40 c-10 -8 -21 -12 -24
-10 -5 6 21 24 34 24 6 0 1 -6 -10 -14z m2356 -15 c0 -12 -20 -25 -27 -18 -7
7 6 27 18 27 5 0 9 -4 9 -9z m-1905 -40 c-3 -6 -11 -9 -16 -5 -5 3 -7 10 -4
15 4 5 1 9 -5 9 -6 0 -8 5 -4 11 4 7 11 6 21 -4 9 -8 12 -20 8 -26z m2286 1
c-7 -13 -22 -18 -50 -19 -23 0 -41 3 -41 8 0 15 20 20 39 9 15 -8 23 -7 33 5
18 20 31 19 19 -3z m-2694 2 c-3 -3 -12 -4 -19 -1 -8 3 -5 6 6 6 11 1 17 -2
13 -5z m-26 -14 c26 -14 24 -40 -2 -40 -14 0 -19 5 -16 14 3 7 0 19 -6 25 -14
14 -2 14 24 1z m-406 -10 c27 -7 27 -8 5 -8 -14 0 -38 4 -55 8 -27 7 -27 8 -5
8 14 0 39 -4 55 -8z m3015 -11 c0 -5 -4 -9 -10 -9 -5 0 -10 7 -10 16 0 8 5 12
10 9 6 -3 10 -10 10 -16z m-2680 -66 c0 -7 -3 -13 -7 -13 -11 0 -73 77 -67 83
8 7 74 -55 74 -70z m2518 49 c-2 -13 4 -16 30 -14 17 2 32 -1 32 -7 0 -15 -17
-22 -53 -23 -17 -1 -35 -5 -38 -11 -4 -5 -15 -7 -25 -2 -18 7 -18 8 3 17 12 6
25 24 28 39 7 30 28 31 23 1z m-3145 11 c-7 -2 -19 -2 -25 0 -7 3 -2 5 12 5
14 0 19 -2 13 -5z m306 -39 c3 -4 -5 -4 -19 0 -14 4 -54 11 -90 15 -36 5 -53
9 -38 10 15 0 29 5 32 10 6 9 102 -21 115 -35z m2754 26 c-6 -24 -19 -26 -27
-4 -3 8 -2 12 3 9 5 -3 12 -1 16 5 10 16 14 12 8 -10z m188 -7 c-8 -15 -10
-15 -11 -2 0 17 10 32 18 25 2 -3 -1 -13 -7 -23z m-2381 -4 c0 -5 -4 -9 -10
-9 -5 0 -10 7 -10 16 0 8 5 12 10 9 6 -3 10 -10 10 -16z m45 11 c3 -5 1 -10
-4 -10 -6 0 -11 5 -11 10 0 6 2 10 4 10 3 0 8 -4 11 -10z m1545 -6 c0 -2 -7
-4 -15 -4 -8 0 -15 4 -15 10 0 5 7 7 15 4 8 -4 15 -8 15 -10z m37 10 c-3 -3
-12 -4 -19 -1 -8 3 -5 6 6 6 11 1 17 -2 13 -5z m-1794 -44 c11 -21 12 -30 3
-33 -8 -3 -7 -9 3 -20 12 -15 11 -17 -4 -17 -17 0 -17 -1 -1 -19 17 -19 17
-19 -5 -14 l-23 6 20 -29 c22 -33 54 -100 54 -114 0 -6 -4 -10 -10 -10 -5 0
-10 7 -10 15 0 26 -22 63 -36 58 -9 -3 -15 10 -20 44 -3 26 -10 53 -15 59 -5
7 1 19 17 33 28 25 28 30 -6 36 -28 5 -34 11 -25 24 12 21 44 11 58 -19z m104
8 c-3 -8 -6 -5 -6 6 -1 11 2 17 5 13 3 -3 4 -12 1 -19z m640 -10 c-3 -8 -6 -5
-6 6 -1 11 2 17 5 13 3 -3 4 -12 1 -19z m1833 -40 c0 -5 -12 -7 -27 -7 -17 1
-21 3 -10 6 9 2 17 12 17 21 0 15 2 15 10 2 5 -8 10 -18 10 -22z m34 6 c4 -9
4 -19 2 -21 -8 -8 -26 8 -26 23 0 19 16 18 24 -2z m212 -13 c-12 -19 -24 -12
-19 10 4 13 9 17 15 11 6 -6 7 -15 4 -21z m-522 13 c9 -3 16 -13 16 -21 0 -10
-6 -13 -16 -9 -9 3 -20 6 -25 6 -5 0 -9 7 -9 15 0 16 9 19 34 9z m61 -4 c-3
-5 -1 -10 4 -10 6 0 11 5 11 10 0 13 27 13 36 -1 3 -6 0 -18 -9 -26 -11 -12
-19 -13 -36 -4 -22 12 -29 41 -10 41 5 0 7 -4 4 -10z m385 -12 c0 -5 -9 -8
-20 -8 -11 0 -20 -4 -20 -9 0 -4 -12 -7 -27 -6 -40 3 -43 4 -43 16 0 6 9 9 19
6 10 -2 24 -1 31 3 16 10 60 8 60 -2z m27 -32 c-17 -32 -29 -14 -15 23 6 16
12 21 19 14 6 -6 5 -19 -4 -37z m303 18 c0 -8 -11 -16 -25 -20 -26 -6 -34 -29
-12 -37 6 -2 0 -4 -15 -3 -16 0 -28 7 -28 14 0 8 -8 12 -20 10 -10 -2 -19 2
-20 7 0 6 10 11 24 13 13 2 29 9 35 16 15 18 61 17 61 0z m-2807 -37 c-3 -5
-10 -4 -15 1 -6 6 -7 16 -3 22 6 9 9 9 16 -1 4 -7 5 -17 2 -22z m1553 25 c-12
-11 -105 -14 -123 -3 -13 7 1 10 55 10 41 0 71 -3 68 -7z m724 -21 c13 -25 13
-31 0 -31 -5 0 -10 7 -10 15 0 8 -4 15 -10 15 -5 0 -10 5 -10 10 0 17 19 11
30 -9z m-56 0 c3 -5 -3 -11 -14 -14 -11 -3 -19 -11 -18 -18 2 -7 -4 -14 -12
-14 -30 -2 -31 7 -3 31 30 26 39 29 47 15z m440 -23 c-6 -9 -34 -11 -34 -3 0
3 6 12 13 19 12 14 31 0 21 -16z m-1028 2 c13 0 25 -58 14 -65 -4 -2 -5 -17
-3 -32 4 -22 -4 -37 -34 -69 -21 -23 -43 -49 -48 -59 -7 -11 -27 -19 -58 -22
-40 -5 -47 -3 -47 11 0 11 5 15 13 11 6 -4 3 1 -7 9 -11 9 -26 16 -33 16 -7 0
-13 6 -13 14 0 20 -26 68 -36 65 -5 -1 -11 5 -15 12 -34 70 -33 68 -11 92 21
22 45 24 278 17z m783 -4 c-15 -13 -49 -25 -49 -17 0 5 8 12 18 14 24 6 36 8
31 3z m481 0 c0 -11 -19 -15 -25 -6 -3 5 1 10 9 10 9 0 16 -2 16 -4z m-2900
-27 c0 -11 -37 -12 -43 -1 -3 4 6 8 19 8 13 1 24 -2 24 -7z m2721 -6 c-20 -4
-23 -9 -18 -39 4 -23 2 -33 -6 -31 -7 1 -13 -11 -15 -26 -2 -19 -8 -27 -19
-25 -31 6 -25 -22 6 -28 48 -10 47 -11 50 37 1 24 26 21 26 -4 0 -27 22 -42
40 -27 13 10 15 9 15 -8 0 -29 -26 -48 -45 -32 -8 7 -14 19 -13 28 2 8 -3 17
-10 19 -7 3 -12 1 -11 -4 4 -22 -3 -33 -20 -33 -11 0 -23 -5 -26 -10 -4 -6
-10 -8 -15 -5 -5 3 -12 0 -16 -6 -3 -6 0 -15 7 -20 11 -7 9 -9 -7 -9 -13 0
-25 10 -32 25 -10 22 -15 24 -38 15 -43 -17 -46 -21 -27 -36 17 -13 17 -13 -4
-14 -14 0 -23 -6 -23 -15 0 -8 -7 -15 -15 -15 -11 0 -12 5 -5 26 6 14 8 30 4
35 -3 5 2 9 10 9 9 0 16 8 16 19 0 26 17 36 35 21 16 -14 37 -3 64 33 7 10 19
16 27 13 8 -3 14 -1 14 4 0 6 -11 10 -25 10 -23 0 -24 2 -13 20 7 12 23 23 36
26 12 4 22 13 22 22 0 12 -3 13 -12 4 -7 -7 -23 -12 -37 -12 -25 0 -25 1 -6
14 24 16 51 24 85 23 25 0 25 0 1 -4z m-2761 -22 c0 -5 10 -12 23 -14 19 -4
18 -4 -5 -6 -16 0 -28 -5 -28 -11 0 -5 -7 -10 -15 -10 -15 0 -21 31 -8 43 10
10 33 8 33 -2z m2285 -1 c3 -5 1 -10 -4 -10 -6 0 -11 5 -11 10 0 6 2 10 4 10
3 0 8 -4 11 -10z m496 -13 c-13 -13 -26 -3 -16 12 3 6 11 8 17 5 6 -4 6 -10
-1 -17z m-724 -43 c3 -17 2 -17 -6 1 -5 11 -10 15 -10 8 -1 -17 -31 -4 -31 13
0 21 45 0 47 -22z m863 21 c0 -8 -7 -15 -15 -15 -26 0 -18 20 13 29 1 1 2 -6
2 -14z m-2878 -55 c3 -30 3 -59 0 -65 -4 -5 -7 -48 -7 -95 0 -51 -4 -84 -10
-84 -5 1 -20 5 -32 9 -19 5 -23 2 -23 -14 0 -16 6 -20 28 -18 24 2 27 -2 30
-33 3 -34 3 -34 -12 -14 -9 12 -27 25 -41 28 -15 4 -23 11 -19 17 4 6 1 15 -7
19 -7 5 -15 38 -18 82 -6 71 -7 73 -36 80 -27 7 -27 7 6 4 35 -4 35 -3 35 30
-1 32 -3 35 -31 34 -44 -3 -53 0 -30 10 11 4 30 6 43 3 12 -3 22 0 22 6 0 6
12 11 27 11 21 0 24 3 15 12 -9 9 -7 14 6 24 32 25 47 12 54 -46z m2758 56 c0
-2 -7 -9 -15 -16 -13 -11 -14 -10 -9 4 5 14 24 23 24 12z m-172 -33 c2 -8 -6
-13 -22 -13 -17 0 -26 5 -26 16 0 19 41 16 48 -3z m-448 -3 c0 -5 -4 -10 -10
-10 -5 0 -10 5 -10 10 0 6 5 10 10 10 6 0 10 -4 10 -10z m325 -41 c-5 -14 0
-20 19 -25 30 -7 31 -10 11 -31 -13 -12 -18 -13 -31 -3 -12 11 -17 10 -28 -5
-9 -13 -15 -15 -20 -6 -4 6 0 14 8 17 19 7 21 31 4 37 -10 3 -8 10 6 25 21 25
40 19 31 -9z m309 15 c3 -8 2 -12 -4 -9 -6 3 -10 10 -10 16 0 14 7 11 14 -7z
m-262 -9 c0 -5 -5 -11 -11 -13 -6 -2 -11 4 -11 13 0 9 5 15 11 13 6 -2 11 -8
11 -13z m-142 -9 c0 -8 -6 -16 -14 -19 -10 -4 -12 0 -9 14 6 22 23 26 23 5z
m-40 -5 c0 -14 -12 -20 -61 -26 -41 -6 -43 -5 -25 9 11 9 28 14 38 10 10 -3
18 -1 18 5 0 6 7 11 15 11 8 0 15 -4 15 -9z m-430 -36 c0 -8 -2 -15 -4 -15 -2
0 -6 7 -10 15 -3 8 -1 15 4 15 6 0 10 -7 10 -15z m986 -20 c-20 -30 -70 -35
-81 -7 -5 14 -4 15 6 5 18 -18 29 -16 29 3 0 10 6 14 14 11 8 -3 20 1 27 9 19
23 23 7 5 -21z m-766 -16 c0 -11 -4 -17 -10 -14 -5 3 -10 13 -10 21 0 8 5 14
10 14 6 0 10 -9 10 -21z m163 6 c-3 -9 -8 -14 -10 -11 -3 3 -2 9 2 15 9 16 15
13 8 -4z m-262 -26 c-9 -22 -10 -22 -10 -3 -1 11 2 24 6 27 12 12 14 0 4 -24z
m139 11 c0 -5 -4 -10 -9 -10 -6 0 -13 5 -16 10 -3 6 1 10 9 10 9 0 16 -4 16
-10z m265 1 c10 -17 -12 -21 -25 -6 -10 12 -10 15 3 15 9 0 18 -4 22 -9z
m-344 -20 c-9 -16 -51 -37 -51 -24 0 17 24 43 41 43 16 0 18 -3 10 -19z m527
7 c-3 -7 -15 -15 -28 -16 -21 -3 -22 -2 -11 12 16 19 44 21 39 4z m-1540 -18
c-14 -22 -29 -22 -36 0 -3 7 0 10 6 6 6 -3 13 -2 17 4 3 5 10 10 16 10 5 0 4
-9 -3 -20z m1317 10 c-3 -5 -10 -10 -16 -10 -5 0 -9 5 -9 10 0 6 7 10 16 10 8
0 12 -4 9 -10z m362 -28 c-27 -30 -7 -34 30 -6 27 21 33 22 33 8 0 -13 3 -14
14 -5 23 19 28 -4 6 -29 -16 -19 -21 -20 -25 -7 -14 35 -65 -16 -65 -66 0 -28
-44 -19 -48 11 -2 12 -8 22 -14 22 -6 0 -8 3 -5 6 4 4 13 1 21 -5 21 -18 43
23 25 46 -11 12 -10 17 4 24 9 6 17 17 17 26 0 13 3 14 12 5 9 -9 8 -16 -5
-30z m-393 9 c3 -4 3 -11 0 -14 -8 -7 -44 4 -44 14 0 12 37 12 44 0z m361 -1
c-3 -5 -10 -10 -16 -10 -5 0 -9 5 -9 10 0 6 7 10 16 10 8 0 12 -4 9 -10z m-65
-30 c0 -12 -12 -23 -35 -31 -19 -7 -35 -19 -35 -26 0 -17 -27 -17 -33 0 -3 7
-6 5 -6 -5 -1 -10 -6 -18 -13 -18 -6 0 -20 -7 -30 -16 -15 -14 -20 -15 -34 -3
-15 12 -17 12 -13 0 9 -26 56 -34 105 -18 49 16 60 10 39 -20 -11 -16 -31 -23
-77 -28 -35 -4 -67 -14 -73 -22 -6 -7 -22 -20 -35 -27 -14 -7 -24 -18 -22 -25
3 -17 -28 -26 -38 -11 -6 10 -13 8 -31 -9 -22 -21 -23 -23 -6 -32 9 -6 17 -17
17 -25 0 -9 -7 -14 -17 -12 -12 2 -19 -4 -21 -20 -4 -29 -41 -50 -53 -31 -7
11 -11 11 -17 1 -5 -7 -24 -17 -43 -23 -38 -12 -116 -20 -101 -10 10 6 22 81
12 81 -3 0 -11 -13 -18 -29 -9 -21 -18 -28 -32 -24 -16 4 -20 0 -20 -22 0 -20
-4 -26 -15 -21 -8 3 -15 2 -15 -2 0 -4 -13 -13 -30 -19 -16 -6 -33 -20 -37
-30 -4 -10 -13 -24 -20 -31 -7 -7 -13 -29 -13 -48 0 -32 -2 -34 -32 -33 -18 0
-27 3 -20 6 14 6 16 33 2 33 -16 0 -12 30 5 36 8 4 15 12 15 20 0 7 10 23 23
35 l22 22 -25 -8 c-35 -10 -72 -7 -85 7 -7 8 -6 9 3 3 11 -5 12 1 8 28 -6 39
9 60 19 27 3 -11 4 -23 1 -28 -2 -4 -1 -14 4 -22 7 -12 10 -11 16 4 5 14 9 15
16 4 8 -10 11 -10 15 0 3 8 11 5 24 -10 10 -13 18 -20 19 -15 0 4 -1 8 -2 10
-1 1 4 12 10 23 7 13 26 24 47 28 34 7 48 30 23 38 -7 3 -9 12 -5 23 7 17 8
17 21 0 13 -18 14 -17 44 4 23 16 36 20 48 13 13 -7 22 -3 39 16 16 18 27 23
43 18 27 -9 28 -23 2 -31 -11 -3 -20 -10 -20 -14 0 -4 -11 -13 -25 -19 -30
-14 -32 -28 -5 -35 13 -3 24 1 30 13 12 23 47 32 54 13 7 -17 26 -8 26 13 0 8
-7 14 -16 14 -14 0 -14 1 0 16 9 8 19 26 22 40 3 13 11 24 17 24 6 0 8 3 4 6
-3 3 -19 -1 -35 -9 -17 -8 -36 -11 -43 -6 -7 4 -17 5 -21 3 -4 -3 -8 0 -8 5 0
6 4 11 9 11 4 0 21 12 36 26 15 14 33 23 41 20 7 -3 14 0 16 5 2 7 24 7 67 -1
56 -10 66 -9 73 4 5 9 20 16 33 16 31 0 31 4 0 44 -14 18 -22 36 -18 40 4 4 0
4 -10 0 -9 -3 -17 -11 -17 -16 0 -6 -7 -8 -15 -4 -17 6 -20 -5 -5 -20 8 -8 5
-18 -8 -35 -16 -19 -22 -21 -35 -11 -15 13 -12 56 3 47 15 -9 23 17 9 26 -12
8 -11 11 4 20 9 5 17 18 17 27 1 15 3 14 16 -3 10 -14 17 -16 22 -8 9 15 40
19 75 10 38 -10 48 -2 36 30 -10 26 -4 45 9 28 11 -16 52 -16 74 -1 25 18 48
10 48 -14z m-693 13 c-9 -2 -15 -9 -12 -14 4 -5 1 -9 -4 -9 -6 0 -11 7 -11 15
0 9 9 15 23 14 17 -1 18 -2 4 -6z m367 -31 c-12 -9 -24 -24 -27 -32 -4 -10 -6
-9 -6 6 -1 24 17 44 39 44 11 0 10 -5 -6 -18z m-61 -12 c-3 -11 -9 -20 -14
-20 -11 0 -11 3 -3 24 9 23 23 20 17 -4z m-53 -25 c0 -8 0 -18 1 -22 0 -4 -5
-9 -12 -12 -8 -2 -10 2 -6 12 4 12 -1 15 -24 15 -16 -1 -29 -5 -29 -11 0 -5
-11 -7 -25 -5 -13 3 -26 0 -28 -6 -3 -8 -8 -8 -17 1 -19 17 -3 35 21 23 12 -7
19 -7 19 -1 0 5 19 12 43 14 23 2 45 4 50 5 4 1 7 -5 7 -13z m-214 -31 c-4 -9
-9 -15 -11 -12 -3 3 -3 13 1 22 4 9 9 15 11 12 3 -3 3 -13 -1 -22z m-430 -79
c-3 -9 -10 -13 -16 -10 -12 8 -13 -5 -1 -24 11 -16 -15 -74 -56 -129 -19 -25
-28 -30 -38 -22 -9 8 -14 5 -18 -11 -3 -11 -15 -23 -26 -26 -16 -4 -19 -11
-15 -29 5 -18 2 -24 -9 -24 -10 0 -17 -11 -19 -32 -2 -27 -9 -35 -36 -44 -17
-5 -37 -15 -44 -22 -15 -15 -45 -15 -50 0 -3 8 -14 5 -35 -10 -40 -28 -58 -29
-43 -3 15 29 12 38 -5 15 -11 -14 -14 -15 -15 -4 0 24 46 61 84 67 20 3 36 9
36 14 0 5 7 6 15 2 9 -3 23 1 33 9 9 8 24 17 33 21 9 3 27 29 41 59 36 76 72
127 123 174 35 33 45 49 46 75 l1 34 10 -32 c6 -18 8 -39 4 -48z m502 58 c-4
-20 -39 -25 -45 -6 -4 10 11 18 40 22 5 0 7 -7 5 -16z m216 -15 c-3 -5 -12 -7
-19 -4 -7 2 -15 -1 -18 -7 -3 -7 -18 -14 -33 -15 -16 -2 -38 -4 -48 -5 -10 -1
-21 4 -24 12 -3 10 3 13 27 9 17 -2 31 0 31 5 0 5 5 7 12 5 6 -2 20 4 31 15
14 14 21 16 33 7 7 -7 11 -17 8 -22z m375 6 c-6 -8 -19 -13 -28 -13 -13 1 -13
2 2 6 9 2 17 11 17 19 0 8 5 12 10 9 8 -5 7 -11 -1 -21z m-3209 6 c12 -8 12
-10 1 -10 -11 0 -11 -3 0 -16 11 -14 9 -15 -27 -9 l-39 6 28 -16 c37 -21 34
-25 -10 -13 -36 10 -78 7 -118 -8 -17 -6 -17 -4 4 14 22 20 22 22 5 23 -12 0
-4 7 21 19 44 20 111 25 135 10z m510 -31 c15 -17 31 -44 34 -60 6 -31 1 -237
-6 -244 -3 -3 -18 -8 -35 -11 -28 -6 -31 -4 -37 28 -3 18 -8 97 -11 176 -5
126 -4 142 10 142 9 0 29 -14 45 -31z m2171 -21 c18 -6 1 -28 -22 -28 -10 0
-19 -5 -19 -11 0 -5 -4 -8 -9 -5 -5 3 -11 -3 -14 -13 -3 -12 1 -22 9 -25 8 -3
14 -2 14 3 0 10 47 21 54 13 10 -9 -14 -41 -27 -36 -7 2 -30 -5 -52 -16 -21
-11 -50 -20 -62 -20 -14 0 -23 -6 -23 -15 0 -8 -3 -16 -7 -16 -5 -1 -21 -3
-37 -5 -16 -2 -42 -8 -59 -14 -40 -13 -47 -13 -41 4 3 8 20 18 37 21 18 3 41
10 52 15 11 4 28 11 37 14 11 3 15 11 11 21 -6 16 40 67 69 78 7 2 9 8 5 13
-4 4 -17 3 -27 -4 -24 -15 -30 -15 -30 -1 0 19 28 39 55 39 14 0 28 7 32 16 5
13 8 12 24 -4 10 -11 23 -22 30 -24z m-124 26 c-3 -3 -12 -4 -19 -1 -8 3 -5 6
6 6 11 1 17 -2 13 -5z m813 -4 c0 -5 -4 -10 -10 -10 -5 0 -10 5 -10 10 0 6 5
10 10 10 6 0 10 -4 10 -10z m-61 -39 c12 -8 12 -11 -1 -24 -13 -13 -16 -13
-26 3 -16 26 -1 38 27 21z m-3472 -53 c-3 -8 -6 -5 -6 6 -1 11 2 17 5 13 3 -3
4 -12 1 -19z m3192 10 c6 10 10 8 14 -8 3 -12 1 -30 -6 -40 -10 -17 -12 -17
-34 8 -17 20 -19 29 -11 39 9 11 13 12 20 1 6 -11 10 -11 17 0z m-2449 -12 c0
-3 -4 -8 -10 -11 -5 -3 -10 -1 -10 4 0 6 5 11 10 11 6 0 10 -2 10 -4z m77 -2
c-3 -3 -12 -4 -19 -1 -8 3 -5 6 6 6 11 1 17 -2 13 -5z m113 -39 c0 -8 -4 -15
-10 -15 -5 0 -10 7 -10 15 0 8 5 15 10 15 6 0 10 -7 10 -15z m2340 -19 c0 -29
-24 -40 -53 -24 l-22 13 23 3 c12 2 22 10 22 18 0 8 7 14 15 14 9 0 15 -9 15
-24z m-687 4 c8 0 8 -3 1 -10 -12 -12 -44 -3 -44 12 0 6 7 7 16 4 9 -3 21 -6
27 -6z m-2029 -56 c23 -22 20 -24 -16 -17 -40 7 -42 9 -33 22 9 16 31 13 49
-5z m399 9 c-7 -2 -19 -2 -25 0 -7 3 -2 5 12 5 14 0 19 -2 13 -5z m2192 -24
c0 -9 -12 -15 -30 -16 -16 -1 -22 1 -12 3 9 3 17 12 17 21 0 8 6 13 13 11 6
-3 12 -11 12 -19z m-1232 -26 c-7 -2 -19 -2 -25 0 -7 3 -2 5 12 5 14 0 19 -2
13 -5z m867 -62 c0 -5 -9 -11 -20 -14 -13 -3 -18 -10 -14 -21 3 -9 1 -23 -6
-31 -17 -21 -56 -19 -64 3 -3 9 -9 23 -12 31 -5 9 -1 11 13 7 13 -4 26 1 38
14 18 20 65 28 65 11z m216 -6 c8 -21 -3 -34 -26 -28 -16 4 -18 9 -9 24 12 23
27 25 35 4z m-2051 -16 c11 -17 -1 -21 -15 -4 -8 9 -8 15 -2 15 6 0 14 -5 17
-11z m1985 4 c0 -5 -6 -16 -14 -25 -10 -13 -15 -15 -24 -6 -20 20 -13 38 13
38 14 0 25 -3 25 -7z m-74 -20 c-2 -10 -7 -32 -11 -50 -4 -23 -11 -30 -21 -26
-8 3 -21 -2 -28 -12 -11 -16 -14 -15 -29 9 -13 19 -14 26 -5 26 7 0 26 16 42
35 31 37 61 47 52 18z m-331 -53 c3 -6 -1 -13 -10 -16 -19 -8 -30 0 -20 15 8
14 22 14 30 1z m1085 -39 c-14 -26 -30 -27 -30 -1 0 13 5 18 15 14 8 -4 15 -1
15 7 0 7 3 10 6 7 3 -4 1 -16 -6 -27z m-2868 -3 c-7 -7 -12 -8 -12 -2 0 14 12
26 19 19 2 -3 -1 -11 -7 -17z m1043 12 c-3 -5 -11 -10 -16 -10 -6 0 -7 5 -4
10 3 6 11 10 16 10 6 0 7 -4 4 -10z m975 -21 c0 -5 -7 -9 -15 -9 -9 0 -12 6
-9 15 6 15 24 11 24 -6z m755 -19 c-4 -13 -1 -22 9 -26 22 -8 20 -24 -3 -24
-23 0 -31 18 -20 48 10 27 23 30 14 2z m-3024 -24 c-6 -14 -16 -26 -23 -26 -9
0 -10 3 -2 8 6 4 15 17 19 30 4 13 9 22 11 19 3 -2 0 -16 -5 -31z m2922 -49
c5 4 5 -5 1 -21 -5 -21 -4 -27 5 -22 9 6 11 -6 7 -45 -4 -46 -2 -51 9 -36 13
19 32 6 20 -13 -11 -17 -45 -11 -45 8 -1 16 -2 16 -15 -2 -7 -10 -18 -15 -24
-11 -15 8 -14 36 0 33 6 -2 14 3 16 10 3 6 -2 12 -10 12 -19 0 -11 36 9 44 19
7 18 36 -1 36 -8 0 -15 8 -16 18 0 14 -2 13 -11 -5 -11 -23 -45 -37 -54 -21
-3 5 -4 10 -3 11 2 1 13 8 24 15 11 7 28 15 38 18 9 4 17 14 18 23 0 9 6 -1
12 -22 7 -22 16 -35 20 -30z m61 48 c-4 -8 -10 -12 -15 -9 -14 8 -10 24 6 24
9 0 12 -6 9 -15z m-2814 -5 c0 -5 -8 -31 -18 -57 -11 -26 -22 -57 -26 -67 -3
-10 -9 -16 -12 -13 -8 7 38 147 48 147 4 0 8 -4 8 -10z m790 -42 c0 -10 7 -18
15 -18 8 0 15 -4 15 -10 0 -5 4 -10 10 -10 5 0 20 -10 34 -22 40 -37 55 -48
66 -48 5 0 10 -4 10 -10 0 -5 6 -10 14 -10 8 0 28 -13 44 -30 17 -16 35 -30
40 -30 18 0 33 -28 35 -64 1 -20 7 -36 14 -36 7 0 16 -6 20 -12 15 -23 48 -35
86 -30 31 3 36 2 31 -12 -5 -13 0 -16 25 -16 17 0 31 -4 31 -10 0 -20 44 -9
122 30 43 21 84 37 91 34 7 -2 22 4 34 15 13 12 24 16 30 10 11 -11 73 -1 73
12 0 5 -8 9 -17 10 -12 1 -10 4 7 9 44 14 52 12 39 -9 -7 -10 -9 -26 -5 -36 5
-14 9 -15 21 -5 10 9 15 9 15 1 0 -6 -4 -11 -10 -11 -5 0 -10 -6 -10 -13 0
-13 -75 -117 -277 -384 -45 -59 -100 -130 -122 -157 -23 -28 -41 -56 -41 -62
0 -7 -8 -15 -19 -19 -10 -3 -34 -20 -52 -38 -18 -18 -51 -44 -73 -59 -23 -16
-34 -28 -26 -28 8 0 -12 -13 -45 -28 -55 -26 -61 -27 -67 -11 -4 9 -12 20 -18
24 -6 4 -16 18 -21 32 -7 20 -6 30 8 45 14 16 18 36 17 94 0 65 -5 82 -38 146
-65 123 -85 189 -92 298 -4 55 -11 100 -16 100 -4 0 -8 -6 -8 -14 0 -7 -7 -20
-17 -27 -18 -15 -48 -79 -44 -93 1 -5 -5 -32 -14 -60 -9 -28 -17 -70 -18 -93
0 -29 -5 -43 -13 -43 -16 0 -60 -58 -56 -72 1 -6 -3 -47 -10 -92 -6 -44 -14
-73 -16 -63 -2 9 -7 15 -12 12 -10 -6 -1 36 12 52 5 6 11 34 13 63 2 28 10 62
19 74 8 13 19 47 25 77 17 94 47 174 84 231 43 64 45 75 15 80 -46 6 -87 -4
-93 -23 -8 -25 -25 -25 -20 0 5 25 -32 16 -40 -10 -5 -14 -11 -17 -23 -10 -26
13 -148 32 -166 25 -9 -3 -16 -11 -16 -16 0 -6 -11 -8 -24 -6 -13 3 -32 -1
-42 -9 -16 -12 -17 -15 -4 -23 31 -20 -3 -9 -58 19 -31 15 -79 34 -107 40 -27
7 -66 21 -85 32 -19 11 -26 17 -15 13 11 -4 47 -16 80 -26 33 -11 73 -23 89
-28 20 -7 58 -4 120 6 98 17 109 21 101 34 -3 5 -1 11 5 15 5 3 10 1 10 -4 0
-6 7 -11 15 -11 8 0 14 5 13 12 -2 8 9 11 35 9 21 -1 37 2 37 8 0 18 32 12 36
-6 4 -16 18 -18 99 -18 l94 0 -4 30 c-2 17 -6 68 -9 115 -2 47 -7 117 -11 155
-5 64 -5 68 10 51 8 -11 15 -28 15 -38z m1027 -10 c-3 -8 -6 -5 -6 6 -1 11 2
17 5 13 3 -3 4 -12 1 -19z m809 -3 c10 -25 43 -38 60 -24 12 9 14 7 14 -15 0
-15 -7 -29 -16 -33 -10 -4 -14 -13 -10 -27 5 -20 2 -22 -29 -18 -35 4 -52 26
-35 47 5 6 7 15 3 18 -3 4 -1 7 6 7 7 0 10 -7 7 -17 -3 -10 -1 -25 4 -33 6 -9
10 -10 10 -3 0 6 2 18 6 26 3 8 -6 28 -20 45 -15 16 -26 33 -26 36 0 13 21 5
26 -9z m-26 -20 c0 -8 -5 -15 -11 -15 -6 0 -8 -9 -3 -22 6 -22 6 -23 -13 -5
-20 17 -21 17 -26 -3 -3 -12 0 -23 6 -26 7 -2 12 -18 13 -34 l1 -30 -30 30
c-30 29 -67 40 -67 20 0 -5 -4 -10 -10 -10 -5 0 -10 7 -10 15 0 8 -5 15 -11
15 -7 0 -9 -9 -6 -22 3 -13 0 -31 -8 -41 -7 -10 -10 -27 -7 -39 3 -15 2 -19
-7 -14 -6 4 -9 12 -6 17 4 5 -1 9 -11 9 -11 0 -15 6 -11 19 12 45 -58 30 -87
-19 -16 -28 -46 -32 -46 -6 0 7 -3 6 -9 -2 -6 -10 -10 -10 -21 3 -20 24 -30
18 -31 -17 0 -30 -1 -31 -9 -10 -11 26 -27 28 -52 5 -11 -9 -18 -11 -18 -5 0
7 -6 12 -14 12 -10 0 -13 14 -13 50 0 28 4 50 9 50 8 0 10 -7 11 -52 1 -33 0
-32 37 -13 21 11 30 12 30 4 0 -8 4 -8 15 1 12 10 18 10 30 0 13 -11 15 -8 15
14 0 14 5 26 10 26 6 0 10 -7 10 -15 0 -8 9 -15 20 -15 11 0 20 7 20 15 0 9 6
15 13 14 24 -3 37 1 37 12 0 6 -7 9 -15 5 -9 -3 -25 4 -37 16 l-22 22 24 6
c16 4 26 2 28 -7 2 -7 14 -13 27 -13 28 0 43 -19 25 -30 -9 -6 -6 -10 9 -15
27 -8 39 1 24 16 -6 6 -9 18 -6 25 3 8 -1 14 -11 14 -26 0 -18 15 15 27 26 10
30 10 25 -3 -3 -8 1 -14 9 -14 7 0 16 8 18 18 4 13 5 12 6 -5 0 -12 6 -25 11
-28 10 -6 14 7 11 32 -1 8 5 10 14 7 9 -4 15 -1 15 7 0 12 2 12 9 0 6 -9 11
-10 15 -3 4 6 13 9 20 6 8 -3 17 -1 21 5 9 16 25 13 25 -4z m-776 -41 c3 -8 2
-12 -4 -9 -6 3 -10 10 -10 16 0 14 7 11 14 -7z m196 -14 c0 -5 -7 -10 -15 -10
-8 0 -15 5 -15 10 0 6 7 10 15 10 8 0 15 -4 15 -10z m228 0 c26 -1 26 -1 7
-15 -11 -8 -25 -19 -32 -25 -7 -6 -18 -9 -25 -8 -7 2 -12 -3 -10 -9 4 -21 -20
-14 -25 7 -5 20 -23 28 -23 10 0 -5 -4 -10 -10 -10 -5 0 -10 7 -10 15 0 11 11
15 41 15 34 0 40 3 35 16 -5 12 -2 15 10 10 8 -3 28 -6 42 -6z m-208 -42 c0
-17 -6 -23 -25 -24 -14 -1 -25 2 -25 7 0 5 6 9 14 9 8 0 16 7 20 15 8 22 16
18 16 -7z m248 10 c-2 -6 -10 -14 -16 -16 -7 -2 -10 2 -6 12 7 18 28 22 22 4z
m214 -35 c-6 -3 -9 -10 -6 -15 5 -7 2 -8 -6 -3 -7 4 -16 2 -21 -6 -7 -11 -9
-10 -9 4 0 9 7 17 15 17 8 0 15 8 15 17 0 14 2 15 13 4 10 -11 9 -14 -1 -18z
m-522 3 c0 -3 -4 -8 -10 -11 -5 -3 -10 -1 -10 4 0 6 5 11 10 11 6 0 10 -2 10
-4z m650 0 c0 -2 -7 -6 -15 -10 -8 -3 -15 -1 -15 4 0 6 7 10 15 10 8 0 15 -2
15 -4z m19 -31 c-26 -13 -57 -26 -70 -29 -13 -2 -36 -9 -51 -15 -14 -5 -36 -9
-47 -8 -22 1 -28 21 -11 32 6 3 10 -1 10 -9 0 -20 10 -20 39 0 25 18 124 52
156 53 12 1 1 -9 -26 -24z m-296 8 c-7 -2 -19 -2 -25 0 -7 3 -2 5 12 5 14 0
19 -2 13 -5z m-2640 -10 c-7 -2 -21 -2 -30 0 -10 3 -4 5 12 5 17 0 24 -2 18
-5z m2342 -13 c0 -7 -9 -18 -20 -24 -11 -6 -25 -17 -31 -25 -9 -12 -11 -12
-11 0 0 8 -4 23 -9 33 -5 14 -4 17 4 12 7 -4 12 -3 12 3 0 10 27 20 45 16 6
-1 10 -8 10 -15z m-2408 4 c-3 -3 -12 -4 -19 -1 -8 3 -5 6 6 6 11 1 17 -2 13
-5z m-37 -13 c0 -5 10 -12 23 -14 12 -2 1 -4 -24 -3 -34 0 -45 4 -42 13 6 15
43 18 43 4z m75 -9 c-3 -3 -11 0 -18 7 -9 10 -8 11 6 5 10 -3 15 -9 12 -12z
m123 -2 c29 -11 62 -20 75 -20 12 0 28 -4 35 -9 8 -5 -9 -6 -40 -3 -54 5 -128
31 -128 44 0 10 -3 11 58 -12z m2415 -42 c8 -5 6 -8 -5 -8 -9 0 -23 -3 -32 -6
-9 -3 -16 -1 -16 5 0 6 7 11 15 11 10 0 16 11 16 33 l2 32 4 -30 c3 -16 10
-33 16 -37z m-123 36 c0 -2 -9 -4 -21 -4 -11 0 -18 4 -14 10 5 8 35 3 35 -6z
m-1455 -14 c3 -5 20 -10 36 -10 17 0 28 -4 24 -9 -8 -14 -48 -7 -75 12 -19 13
-20 17 -8 17 9 0 20 -4 23 -10z m1798 -4 c3 -8 3 -16 0 -19 -7 -8 -32 16 -26
26 7 11 20 8 26 -7z m-1843 -6 c0 -5 -4 -10 -10 -10 -5 0 -10 5 -10 10 0 6 5
10 10 10 6 0 10 -4 10 -10z m-840 -48 c8 -3 47 -26 85 -51 39 -26 82 -53 98
-60 15 -8 27 -18 27 -22 0 -5 14 -24 31 -44 17 -19 27 -35 22 -35 -5 0 -15 9
-22 19 -8 11 -20 17 -28 14 -7 -3 -13 0 -13 7 0 25 -97 99 -190 145 -41 20
-83 41 -92 46 -10 5 -25 9 -33 9 -9 0 -13 4 -10 10 3 6 27 1 58 -11 29 -12 59
-24 67 -27z m1010 41 c0 -14 -19 -38 -25 -32 -8 8 5 39 16 39 5 0 9 -3 9 -7z
m-926 -20 c23 -5 25 -8 12 -15 -10 -6 -26 -3 -46 7 -32 17 -41 32 -12 20 9 -3
30 -9 46 -12z m156 -4 c13 -7 13 -8 0 -8 -8 0 -26 6 -40 15 l-25 15 25 -7 c14
-3 32 -10 40 -15z m2277 15 c-3 -3 -12 -4 -19 -1 -8 3 -5 6 6 6 11 1 17 -2 13
-5z m-2344 -27 c63 -35 143 -87 135 -87 -3 0 -38 18 -77 40 -39 22 -74 40 -79
40 -5 0 -15 7 -22 15 -17 21 -6 19 43 -8z m628 -146 l33 -20 -36 5 c-21 4 -38
2 -42 -5 -10 -16 -75 -14 -130 5 -61 21 -53 30 11 11 38 -11 56 -12 88 -2 l40
11 -47 22 c-27 11 -48 23 -48 26 0 8 92 -29 131 -53z m122 37 c-6 -10 -43 -9
-68 2 -15 7 -8 9 27 7 25 -1 44 -5 41 -9z m-840 -124 c-3 -8 -2 -14 3 -13 5 1
18 1 29 0 19 -2 19 -3 -2 -11 -43 -17 -93 18 -55 39 21 12 33 5 25 -15z m2147
-21 c0 -5 -10 -19 -21 -33 l-20 -25 16 33 c15 30 25 41 25 25z m219 -25 c0
-22 -1 -22 -9 -3 -7 16 -9 16 -9 4 -1 -9 -8 -19 -16 -23 -20 -7 -19 -1 2 24
23 26 33 25 32 -2z m-2166 -5 c-7 -2 -19 -2 -25 0 -7 3 -2 5 12 5 14 0 19 -2
13 -5z m607 -18 c0 -8 -58 -35 -75 -35 -8 0 -15 5 -15 11 0 6 10 8 23 5 12 -3
16 -3 9 0 -20 9 -3 24 29 24 16 0 29 -2 29 -5z m-589 -22 c13 -15 12 -15 -11
-3 -34 17 -36 20 -18 20 9 0 22 -7 29 -17z m2129 -14 c0 -6 -4 -7 -10 -4 -5 3
-10 11 -10 16 0 6 5 7 10 4 6 -3 10 -11 10 -16z m-3181 -18 c14 -9 7 -31 -10
-31 -6 0 -7 5 -3 12 5 8 0 9 -14 6 -12 -4 -20 -2 -17 2 3 5 -1 11 -7 13 -7 3
-2 6 12 6 14 0 31 -3 39 -8z m-84 -11 c-3 -5 -11 -10 -16 -10 -6 0 -7 5 -4 10
3 6 11 10 16 10 6 0 7 -4 4 -10z m353 -12 l53 -10 -51 -25 c-43 -21 -50 -28
-44 -47 5 -18 4 -19 -7 -6 -8 8 -23 23 -34 33 -19 17 -19 17 15 11 19 -4 31
-3 27 2 -4 4 9 14 30 21 37 12 37 13 5 8 -18 -3 -31 -1 -28 4 3 4 -8 8 -24 7
-25 -1 -27 -3 -15 -12 26 -19 17 -23 -46 -19 -63 4 -95 15 -45 15 23 0 27 4
23 20 -5 18 -1 19 42 14 25 -3 70 -10 99 -16z m2622 -13 c0 -8 -4 -15 -10 -15
-5 0 -7 7 -4 15 4 8 8 15 10 15 2 0 4 -7 4 -15z m290 -11 c0 -8 -4 -14 -8 -14
-9 0 -13 -18 -13 -63 0 -15 -9 -42 -19 -60 -21 -34 -28 -17 -10 25 5 13 14 49
20 81 6 31 16 55 21 52 5 -4 9 -13 9 -21z m-2825 -4 c3 -5 1 -10 -4 -10 -6 0
-11 5 -11 10 0 6 2 10 4 10 3 0 8 -4 11 -10z m-302 -7 c-7 -2 -19 -2 -25 0 -7
3 -2 5 12 5 14 0 19 -2 13 -5z m3297 -13 c-14 -11 -31 -20 -37 -20 -9 0 -10
-7 -3 -26 7 -16 7 -23 0 -19 -9 6 -14 -8 -11 -27 0 -4 -10 -7 -24 -6 -19 2
-24 7 -19 18 3 8 9 23 11 33 3 9 9 17 14 17 5 0 9 5 9 11 0 18 32 38 60 38
l25 1 -25 -20z m151 10 c29 0 12 -29 -29 -46 -19 -8 -37 -12 -40 -10 -8 9 10
26 28 26 10 0 22 5 25 10 4 6 -5 10 -20 10 -16 0 -24 4 -20 11 4 6 14 8 22 5
8 -3 23 -6 34 -6z m-3542 -14 c-2 -2 -20 -6 -39 -10 l-35 -6 35 14 c31 12 51
13 39 2z m48 8 c-3 -3 -12 -4 -19 -1 -8 3 -5 6 6 6 11 1 17 -2 13 -5z m313 2
c0 -3 -4 -8 -10 -11 -5 -3 -10 -1 -10 4 0 6 5 11 10 11 6 0 10 -2 10 -4z m40
-26 c-8 -6 -22 -10 -30 -10 -8 0 -4 6 10 13 27 15 44 12 20 -3z m3200 5 c-10
-12 -10 -15 4 -15 9 0 16 -4 16 -10 0 -20 20 -9 26 15 l6 24 49 -24 c27 -14
52 -26 56 -26 5 0 15 -5 23 -9 13 -7 12 -11 -3 -27 -9 -11 -14 -22 -11 -26 6
-6 -38 -16 -91 -21 -16 -1 -29 -7 -28 -13 1 -6 -7 -19 -17 -28 -11 -10 -20
-24 -20 -32 0 -7 -7 -13 -16 -13 -10 0 -14 -6 -11 -14 3 -8 -1 -17 -9 -20 -8
-3 -14 -14 -14 -25 0 -11 -9 -26 -20 -34 -11 -8 -17 -17 -13 -20 3 -4 -1 -15
-9 -24 -20 -23 -53 -86 -50 -95 1 -5 -4 -8 -12 -8 -8 0 -19 -12 -24 -27 l-10
-28 -1 26 c-1 17 10 39 28 58 15 16 26 33 23 36 -3 3 5 19 17 36 13 17 24 36
26 42 1 7 6 26 10 44 4 17 14 35 23 38 14 5 14 7 2 16 -13 7 -13 10 -1 18 11
7 10 11 -5 20 -18 10 -18 10 3 11 12 0 24 4 27 8 3 5 -4 8 -14 8 -31 -1 -27
19 5 24 15 3 30 10 32 17 3 7 -3 10 -15 6 -16 -4 -20 2 -24 33 -5 39 14 72 41
73 11 1 11 -2 1 -14z m-2987 -74 c-1 -2 4 -9 11 -15 8 -6 17 -22 21 -36 5 -19
0 -15 -21 15 -15 22 -40 55 -56 73 -41 48 -34 54 10 7 21 -22 37 -42 35 -44z
m2277 44 c-7 -9 -15 -13 -17 -11 -7 7 7 26 19 26 6 0 6 -6 -2 -15z m-1769 -7
c0 -4 6 -22 14 -40 7 -18 16 -76 19 -128 3 -52 3 -86 0 -75 -3 11 -8 27 -11
35 -3 8 -6 29 -5 45 0 20 -1 23 -5 10 -3 -11 -9 -24 -13 -29 -5 -5 -6 -22 -3
-39 4 -20 3 -28 -4 -24 -6 4 -16 -6 -22 -23 -7 -23 -16 -30 -36 -30 -16 0 -28
7 -31 18 -12 35 -28 64 -32 53 -2 -6 -10 -11 -18 -11 -17 0 -17 0 2 -39 9 -18
13 -42 10 -56 -6 -23 -7 -24 -26 -8 -11 10 -20 23 -20 30 0 6 -9 15 -20 18
-15 5 -19 12 -14 30 3 12 1 26 -5 29 -25 16 -10 28 28 23 30 -4 44 -1 55 12 9
10 16 21 16 25 0 4 7 14 16 23 8 9 13 22 10 29 -3 9 2 14 14 14 16 0 20 7 20
30 0 20 5 30 15 30 8 0 15 4 15 9 0 5 7 11 15 13 10 2 12 8 5 17 -7 13 -11 13
-27 0 -17 -13 -17 -13 -4 4 13 17 42 20 42 5z m2287 5 c-10 -2 -26 -2 -35 0
-10 3 -2 5 17 5 19 0 27 -2 18 -5z m-3071 -29 c-3 -3 -12 -4 -19 -1 -8 3 -5 6
6 6 11 1 17 -2 13 -5z m1273 -14 c-6 -11 -13 -20 -16 -20 -2 0 0 9 6 20 6 11
13 20 16 20 2 0 0 -9 -6 -20z m1240 -4 c0 -3 -4 -8 -10 -11 -5 -3 -10 -1 -10
4 0 6 5 11 10 11 6 0 10 -2 10 -4z m459 -26 c-1 -27 -14 -45 -34 -48 -15 -2
-17 -1 -6 7 8 5 12 19 9 34 -4 20 -1 25 14 24 10 -1 18 -8 17 -17z m-552 -36
c-3 -3 -12 -4 -19 -1 -8 3 -5 6 6 6 11 1 17 -2 13 -5z m413 2 c0 -2 -7 -7 -16
-10 -8 -3 -12 -2 -9 4 6 10 25 14 25 6z m-3014 -45 c-9 -10 -16 -24 -14 -31 2
-7 -2 -14 -9 -17 -9 -3 -11 11 -4 35 1 1 1 5 0 8 -1 8 22 24 35 24 5 0 1 -8
-8 -19z m61 13 c-3 -3 -12 -4 -19 -1 -8 3 -5 6 6 6 11 1 17 -2 13 -5z m3063
-15 c0 -13 -4 -18 -11 -13 -9 5 -10 -1 -5 -20 5 -20 3 -26 -10 -26 -12 0 -15
-6 -10 -24 4 -15 0 -28 -9 -36 -7 -6 -11 -19 -9 -28 5 -14 3 -13 -10 2 -14 17
-14 20 2 32 9 7 14 16 10 20 -4 4 -1 19 6 33 8 14 19 38 25 54 13 32 21 35 21
6z m240 11 c0 -5 -2 -10 -4 -10 -3 0 -8 5 -11 10 -3 6 -1 10 4 10 6 0 11 -4
11 -10z m-3173 -6 c-3 -3 -12 -4 -19 -1 -8 3 -5 6 6 6 11 1 17 -2 13 -5z
m2800 -19 c-4 -8 -11 -15 -17 -15 -6 0 -6 7 2 20 14 22 24 19 15 -5z m-2743 4
c10 16 20 14 35 -10 12 -20 11 -21 -6 -14 -10 4 -25 8 -32 9 -8 2 -17 9 -19
17 -3 12 -2 12 6 0 7 -9 12 -10 16 -2z m280 -88 c4 -6 4 -11 1 -11 -9 0 -35
66 -34 87 0 10 6 0 13 -23 7 -23 16 -46 20 -53z m930 61 c8 -13 -35 -72 -52
-72 -11 0 -6 10 17 34 23 24 29 35 19 39 -8 4 -9 6 -1 6 6 1 14 -3 17 -7z
m2126 -2 c-19 -13 -30 -13 -30 0 0 6 10 10 23 10 18 0 19 -2 7 -10z m-617 -15
c-3 -9 -8 -14 -10 -11 -3 3 -2 9 2 15 9 16 15 13 8 -4z m-2906 -31 c-9 -10
-38 16 -31 28 4 6 13 4 22 -6 9 -8 13 -19 9 -22z m3183 26 c0 -5 -2 -10 -4
-10 -3 0 -8 5 -11 10 -3 6 -1 10 4 10 6 0 11 -4 11 -10z m-3283 -37 c-3 -3
-11 -2 -17 2 -8 5 -7 11 2 22 12 15 13 14 16 -1 2 -10 1 -20 -1 -23z m3647 3
c-21 -15 -30 -14 -19 3 3 6 14 11 23 11 13 0 13 -2 -4 -14z m-3314 -8 c0 -5 5
-6 10 -3 15 9 12 -4 -5 -21 -13 -14 -15 -13 -15 2 0 14 -3 15 -12 6 -17 -17
-24 -15 -25 7 -1 13 5 19 23 19 13 0 24 -5 24 -10z m430 2 c0 -5 -5 -10 -11
-10 -5 0 -7 5 -4 10 3 6 8 10 11 10 2 0 4 -4 4 -10z m2600 0 c0 -5 -2 -10 -4
-10 -3 0 -8 5 -11 10 -3 6 -1 10 4 10 6 0 11 -4 11 -10z m194 -1 c4 6 17 11
29 11 18 -1 19 -2 6 -10 -22 -13 -69 -20 -69 -11 0 15 14 21 21 10 5 -8 8 -8
13 0z m-3177 -21 c-3 -8 -6 -5 -6 6 -1 11 2 17 5 13 3 -3 4 -12 1 -19z m-290
-10 c-3 -8 -6 -5 -6 6 -1 11 2 17 5 13 3 -3 4 -12 1 -19z m186 1 c-4 -13 -9
-17 -15 -11 -11 11 -3 32 12 32 4 0 6 -9 3 -21z m-33 1 c0 -5 -4 -10 -10 -10
-5 0 -10 5 -10 10 0 6 5 10 10 10 6 0 10 -4 10 -10z m511 -7 c13 -16 12 -17
-3 -4 -10 7 -18 15 -18 17 0 8 8 3 21 -13z m-713 -36 c2 -21 -1 -37 -7 -37 -6
0 -11 -6 -11 -13 0 -19 -49 -52 -81 -53 -16 -1 -29 1 -29 5 0 3 23 28 50 56
28 27 50 58 50 68 0 34 25 11 28 -26z m562 -26 c6 -13 8 -26 6 -29 -3 -2 -8 7
-11 21 -4 15 -13 31 -21 38 -8 6 -14 19 -14 28 0 17 18 -9 40 -58z m448 -16
c0 -29 0 -29 -8 -5 -4 14 -8 39 -8 55 0 29 0 29 8 5 4 -14 8 -38 8 -55z m-774
29 c-5 -20 -4 -25 5 -19 9 5 12 1 11 -11 -1 -11 -1 -30 0 -44 2 -21 4 -19 9 9
5 28 11 35 32 35 20 1 25 -2 21 -16 -3 -11 1 -18 11 -18 8 0 17 -10 21 -22 8
-32 7 -50 -2 -44 -4 2 -14 1 -22 -5 -12 -7 -10 -9 8 -9 40 0 23 -19 -32 -35
-48 -14 -53 -18 -48 -40 3 -16 -1 -27 -11 -31 -9 -3 -13 -14 -10 -27 4 -22 4
-22 -12 -2 -10 13 -14 30 -11 48 4 19 2 26 -5 21 -7 -4 -9 -23 -6 -47 4 -26 2
-36 -3 -27 -5 8 -17 15 -26 15 -10 0 -19 6 -22 14 -3 8 0 11 7 7 6 -4 11 -1
11 7 0 11 -7 13 -22 9 -22 -5 -22 -5 -5 12 26 26 21 42 -20 62 -21 10 -40 18
-43 17 -3 0 -18 -4 -35 -7 -28 -7 -29 -7 -12 12 9 10 17 24 17 30 0 7 7 12 15
12 18 0 20 17 3 23 -10 3 -10 7 0 20 8 9 10 22 6 28 -4 7 -3 9 4 5 6 -3 14 -1
18 5 3 6 0 15 -7 20 -8 5 -10 9 -5 9 6 0 20 -9 32 -21 25 -23 46 -18 37 9 -4
13 -2 13 10 -3 8 -11 20 -21 26 -21 22 -3 23 -4 11 -19 -7 -9 -10 -18 -7 -21
11 -11 25 6 32 39 8 34 13 47 21 47 2 0 1 -12 -2 -26z m536 0 c0 -2 -9 0 -20
6 -11 6 -20 13 -20 16 0 2 9 0 20 -6 11 -6 20 -13 20 -16z m2283 -1 c-25 -67
-90 -131 -132 -128 -17 1 -34 5 -39 10 -4 4 3 4 16 1 16 -6 22 -3 22 8 0 9 7
16 15 16 8 0 15 6 15 13 1 23 77 96 102 97 4 0 4 -8 1 -17z m474 -5 c-3 -8 -6
-5 -6 6 -1 11 2 17 5 13 3 -3 4 -12 1 -19z m-3158 -40 c1 -5 -3 -8 -9 -8 -5 0
-10 12 -9 28 0 24 1 25 9 7 5 -11 9 -23 9 -27z m123 17 c8 -18 8 -32 -2 -55
-7 -16 -16 -30 -21 -30 -4 0 -11 -10 -15 -22 -4 -13 -12 -27 -19 -33 -7 -5
-15 -22 -19 -37 -7 -32 8 -37 36 -11 17 15 19 15 33 -3 11 -15 14 -16 15 -4 0
13 1 13 10 0 5 -8 9 -31 9 -50 0 -29 -2 -31 -9 -15 -5 11 -9 15 -9 8 -1 -6
-14 -14 -31 -18 -16 -4 -32 -11 -36 -16 -6 -10 -110 -60 -154 -74 -31 -10 -69
-16 -95 -16 -10 0 -24 -3 -30 -8 -5 -4 -29 -13 -52 -20 -39 -13 -43 -12 -77
14 -20 15 -36 30 -37 34 0 3 -3 17 -5 31 l-4 25 72 -3 c40 -2 91 -4 112 -5 25
-1 41 3 44 11 2 7 -2 13 -9 11 -26 -3 -37 1 -43 16 -3 9 0 15 10 15 8 0 13 -4
10 -9 -3 -5 6 -11 21 -14 22 -4 41 6 101 56 l74 61 -4 63 c-5 73 4 75 12 2 l5
-50 44 57 c45 57 54 90 29 105 -10 7 -8 9 5 9 9 0 22 -11 29 -25z m453 -24 c3
-7 3 -16 0 -19 -7 -7 -45 34 -45 48 0 14 38 -10 45 -29z m-194 2 c-12 -20 -14
-14 -5 12 4 9 9 14 11 11 3 -2 0 -13 -6 -23z m2154 7 c-3 -5 -12 -7 -20 -3
-21 7 -19 13 6 13 11 0 18 -4 14 -10z m-2087 -25 c-3 -3 -9 2 -12 12 -6 14 -5
15 5 6 7 -7 10 -15 7 -18z m-30 -10 c-3 -3 -9 2 -12 12 -6 14 -5 15 5 6 7 -7
10 -15 7 -18z m60 -40 c-3 -3 -9 2 -12 12 -6 14 -5 15 5 6 7 -7 10 -15 7 -18z
m2402 -39 c0 -3 -4 -8 -10 -11 -5 -3 -10 -1 -10 4 0 6 5 11 10 11 6 0 10 -2
10 -4z m-2555 -27 c11 -17 0 -20 -21 -4 -17 13 -17 14 -2 15 9 0 20 -5 23 -11z
m59 -38 c-2 -3 -12 3 -22 13 -16 17 -16 18 5 5 12 -7 20 -15 17 -18z m-159
-12 c4 -5 -8 -9 -25 -9 -17 0 -29 4 -26 8 7 11 45 12 51 1z m1156 1 c11 -6 19
-22 20 -38 l1 -27 11 28 c16 40 27 33 12 -9 -13 -39 -57 -94 -74 -94 -16 0 5
40 22 41 7 1 -4 4 -23 8 -26 5 -37 13 -45 35 -8 24 -6 31 14 47 27 22 35 23
62 9z m1053 -15 c-4 -8 -8 -15 -10 -15 -2 0 -4 7 -4 15 0 8 4 15 10 15 5 0 7
-7 4 -15z m-1881 -47 c-19 -19 -20 -19 -43 0 l-23 18 37 -4 c20 -2 36 0 35 4
-3 18 3 29 8 15 3 -7 -3 -22 -14 -33z m2272 -8 c3 -5 -1 -10 -9 -10 -8 0 -18
5 -21 10 -3 6 1 10 9 10 8 0 18 -4 21 -10z m-1282 -54 c-2 -37 5 -44 25 -24 7
7 12 8 12 2 0 -5 -9 -17 -20 -27 -12 -10 -18 -22 -15 -27 3 -6 -4 -10 -17 -10
-23 -1 -23 -1 5 -21 16 -12 27 -30 27 -44 0 -34 10 -55 27 -55 9 0 13 6 10 14
-4 10 -1 13 9 9 7 -3 14 -9 14 -14 0 -5 16 -23 35 -40 35 -31 46 -59 23 -59
-6 0 -8 3 -5 7 4 3 1 13 -7 22 -11 13 -34 16 -103 15 -75 -1 -97 -6 -147 -30
-32 -16 -65 -39 -73 -51 -14 -21 -13 -23 19 -43 18 -11 43 -20 54 -20 31 0
224 -100 224 -116 0 -8 -12 -12 -35 -11 -19 1 -35 6 -35 11 0 4 -7 6 -15 2 -8
-3 -19 3 -25 12 -9 15 -11 15 -19 2 -32 -53 -43 -58 -96 -44 -72 19 -76 17
-19 -10 59 -27 67 -40 47 -78 -18 -37 -56 -45 -114 -25 -64 23 -78 21 -39 -5
19 -13 36 -30 38 -38 3 -8 1 -12 -3 -8 -4 4 -18 -4 -31 -17 -13 -14 -30 -25
-39 -25 -8 0 -15 -5 -15 -11 0 -6 -15 -1 -34 10 -18 12 -49 21 -67 21 -38 0
-79 23 -79 45 0 7 -13 17 -28 23 -43 15 -59 61 -68 187 -4 61 -10 112 -14 115
-4 3 -14 27 -23 54 -12 36 -13 45 -3 37 7 -6 15 -9 17 -7 4 4 198 37 296 50
51 7 173 62 173 78 0 8 -16 12 -32 9 -13 -2 -9 11 9 31 9 10 26 18 37 18 12 0
28 9 36 19 7 11 18 18 22 15 5 -3 3 -13 -4 -22 -8 -10 -8 -13 -1 -9 6 4 14 1
17 -5 3 -7 3 13 1 45 -3 33 -1 56 4 52 5 -3 16 -2 25 1 14 5 14 9 4 22 -11 13
-10 14 2 10 10 -4 14 -17 13 -42z m730 27 c-7 -2 -19 -2 -25 0 -7 3 -2 5 12 5
14 0 19 -2 13 -5z m107 -23 c0 -5 -4 -10 -10 -10 -5 0 -10 5 -10 10 0 6 5 10
10 10 6 0 10 -4 10 -10z m390 -60 c0 -5 -4 -10 -10 -10 -5 0 -10 5 -10 10 0 6
5 10 10 10 6 0 10 -4 10 -10z m-1060 -34 c0 -3 -4 -8 -10 -11 -5 -3 -10 -1
-10 4 0 6 5 11 10 11 6 0 10 -2 10 -4z m1025 -32 c-8 -16 -15 -23 -15 -16 0
17 20 55 26 49 2 -2 -2 -17 -11 -33z m-405 16 c0 -5 -2 -10 -4 -10 -3 0 -8 5
-11 10 -3 6 -1 10 4 10 6 0 11 -4 11 -10z m-3116 -16 c8 -21 8 -24 -3 -24 -5
0 -11 9 -14 20 -6 24 8 27 17 4z m326 1 c-7 -8 -20 -15 -29 -15 -11 1 -8 5 9
15 32 18 35 18 20 0z m2130 -37 c0 -15 -4 -30 -10 -33 -6 -4 -10 12 -10 42 0
35 3 44 10 33 5 -8 10 -27 10 -42z m-1741 23 c8 -5 -5 -7 -35 -4 -68 6 -77 11
-24 12 25 0 51 -3 59 -8z m2381 -5 c0 -3 -4 -8 -10 -11 -5 -3 -10 -1 -10 4 0
6 5 11 10 11 6 0 10 -2 10 -4z m-2470 -36 c0 -5 -4 -10 -10 -10 -5 0 -10 5
-10 10 0 6 5 10 10 10 6 0 10 -4 10 -10z m2880 0 c0 -5 -5 -10 -11 -10 -5 0
-7 5 -4 10 3 6 8 10 11 10 2 0 4 -4 4 -10z m-3270 -15 c-7 -9 -15 -13 -17 -11
-7 7 7 26 19 26 6 0 6 -6 -2 -15z m363 -12 c-7 -2 -19 -2 -25 0 -7 3 -2 5 12
5 14 0 19 -2 13 -5z m485 0 c-15 -2 -42 -2 -60 0 -18 2 -6 4 27 4 33 0 48 -2
33 -4z m2412 -3 c0 -5 -8 -10 -17 -10 -15 0 -16 2 -3 10 19 12 20 12 20 0z
m-2530 -10 c0 -5 -7 -10 -16 -10 -8 0 -12 5 -9 10 3 6 10 10 16 10 5 0 9 -4 9
-10z m227 -11 c39 -15 58 -18 61 -10 2 6 20 11 40 11 37 0 37 -1 60 -64 12
-36 22 -69 22 -73 0 -11 -82 -4 -94 8 -6 5 7 9 32 9 23 0 42 5 42 10 0 26 -31
80 -45 80 -9 0 -13 5 -10 10 3 6 1 10 -4 10 -6 0 -11 -4 -11 -9 0 -15 -38 -19
-63 -6 -13 7 -40 15 -60 19 -21 4 -37 11 -37 16 0 13 1 13 67 -11z m474 -6 c5
-14 8 -31 5 -37 -2 -6 -5 -3 -5 7 -1 14 -6 17 -22 12 -12 -4 -60 -8 -106 -9
-67 -2 -86 1 -94 13 -6 11 -7 7 -3 -14 8 -33 6 -33 -24 11 l-21 31 71 2 c40 1
74 4 77 6 2 3 28 5 58 5 49 0 54 -2 64 -27z m-1476 7 c-3 -5 -10 -10 -16 -10
-5 0 -9 5 -9 10 0 6 7 10 16 10 8 0 12 -4 9 -10z m1195 -11 c0 -11 -3 -11 -24
-3 -23 9 -20 23 4 17 11 -3 20 -9 20 -14z m-1226 -8 c3 -5 -10 -11 -30 -13
-39 -5 -58 8 -22 15 40 7 47 7 52 -2z m226 -30 c0 -5 -9 -7 -20 -4 -11 3 -20
12 -20 20 0 11 4 11 20 3 11 -6 20 -15 20 -19z m570 9 c13 -8 13 -10 -2 -10
-9 0 -20 5 -23 10 -8 13 5 13 25 0z m445 0 c3 -5 1 -10 -4 -10 -6 0 -11 5 -11
10 0 6 2 10 4 10 3 0 8 -4 11 -10z m-150 -10 c8 -13 -5 -13 -25 0 -13 8 -13
10 2 10 9 0 20 -4 23 -10z m2200 -29 c-8 -17 -18 -31 -21 -31 -7 0 6 42 19 58
17 22 19 5 2 -27z m-2515 12 c-8 -4 -20 -14 -27 -23 -15 -21 -90 -42 -121 -33
-33 8 -26 23 8 17 32 -7 90 12 103 33 4 7 18 13 30 12 15 0 17 -2 7 -6z m715
-13 c3 -5 1 -10 -4 -10 -6 0 -11 5 -11 10 0 6 2 10 4 10 3 0 8 -4 11 -10z
m-450 -10 c-3 -5 -19 -10 -36 -10 -16 0 -29 5 -29 10 0 6 16 10 36 10 21 0 33
-4 29 -10z m-680 -10 c-3 -5 -21 -10 -38 -9 -31 1 -31 1 -7 9 36 11 52 11 45
0z m745 -10 c0 -14 -6 -20 -22 -19 -13 0 -17 3 -10 6 6 2 12 11 12 19 0 8 5
14 10 14 6 0 10 -9 10 -20z m204 -2 c6 -26 8 -154 2 -147 -2 2 -5 29 -7 59 -1
30 -6 67 -10 83 -4 15 -4 27 1 27 4 0 10 -10 14 -22z m-1114 0 c0 -6 6 -19 14
-27 13 -14 11 -16 -20 -16 -37 0 -40 5 -22 35 14 22 28 26 28 8z m1330 2 c0
-5 -12 -10 -27 -9 l-28 1 25 8 c14 4 26 8 28 9 1 1 2 -3 2 -9z m-181 -31 c-19
-12 -24 -2 -8 17 9 11 14 13 17 4 3 -7 -2 -16 -9 -21z m854 13 c-7 -18 -57
-42 -88 -42 -26 0 -69 35 -60 49 2 5 38 8 79 7 56 -1 72 -4 69 -14z m-1605 -4
c-2 -6 -10 -14 -16 -16 -7 -2 -10 2 -6 12 7 18 28 22 22 4z m432 3 c0 -13 -67
-23 -93 -14 -17 6 -10 9 33 14 30 3 56 6 58 7 1 1 2 -2 2 -7z m2240 -11 c0 -5
-5 -10 -11 -10 -5 0 -7 5 -4 10 3 6 8 10 11 10 2 0 4 -4 4 -10z m-2233 -26
c-3 -3 -12 -4 -19 -1 -8 3 -5 6 6 6 11 1 17 -2 13 -5z m2203 -18 c0 -3 -4 -8
-10 -11 -5 -3 -10 -1 -10 4 0 6 5 11 10 11 6 0 10 -2 10 -4z m-2203 -12 c-3
-3 -12 -4 -19 -1 -8 3 -5 6 6 6 11 1 17 -2 13 -5z m-927 -58 c0 -2 -7 -7 -16
-10 -8 -3 -12 -2 -9 4 6 10 25 14 25 6z m1107 -68 c-3 -8 -6 -5 -6 6 -1 11 2
17 5 13 3 -3 4 -12 1 -19z"/>
<path d="M3808 5513 c7 -3 16 -2 19 1 4 3 -2 6 -13 5 -11 0 -14 -3 -6 -6z"/>
<path d="M1881 5074 c0 -11 3 -14 6 -6 3 7 2 16 -1 19 -3 4 -6 -2 -5 -13z"/>
<path d="M2615 4900 c-8 -13 5 -13 25 0 13 8 13 10 -2 10 -9 0 -20 -4 -23 -10z"/>
<path d="M3910 4670 c0 -5 5 -10 10 -10 6 0 10 5 10 10 0 6 -4 10 -10 10 -5 0
-10 -4 -10 -10z"/>
<path d="M3798 4625 c-3 -15 -1 -22 5 -18 5 3 19 7 31 8 11 1 25 3 29 4 16 2
-22 31 -41 31 -13 0 -21 -8 -24 -25z"/>
<path d="M3714 4549 c-8 -14 14 -29 33 -22 18 7 17 20 -3 27 -21 8 -22 8 -30
-5z"/>
<path d="M3782 4489 c2 -6 8 -10 13 -10 5 0 11 4 13 10 2 6 -4 11 -13 11 -9 0
-15 -5 -13 -11z"/>
<path d="M3418 4433 c7 -3 16 -2 19 1 4 3 -2 6 -13 5 -11 0 -14 -3 -6 -6z"/>
<path d="M1655 4560 c-8 -13 5 -13 25 0 13 8 13 10 -2 10 -9 0 -20 -4 -23 -10z"/>
<path d="M2159 3988 c-10 -4 -19 -4 -19 -1 0 4 -6 -2 -14 -12 -15 -21 -4 -61
14 -50 11 7 60 -23 79 -48 7 -10 24 -22 38 -28 37 -14 20 -26 -48 -32 -34 -3
-66 -10 -72 -16 -8 -8 -1 -8 24 -1 43 13 106 13 113 1 4 -5 -8 -12 -26 -16
-125 -24 -155 -42 -97 -56 49 -12 69 -21 63 -30 -5 -8 10 -10 86 -13 59 -3
120 32 120 67 0 12 10 31 22 44 l21 23 -18 57 c-25 78 -47 101 -104 109 -63
10 -158 11 -182 2z"/>
<path d="M1840 3666 c0 -14 5 -28 10 -31 6 -4 8 -10 5 -15 -3 -5 0 -12 7 -16
7 -4 10 -4 6 1 -4 4 -3 14 3 22 9 10 7 19 -5 38 -21 31 -26 31 -26 1z"/>
<path d="M2268 3653 c7 -3 16 -2 19 1 4 3 -2 6 -13 5 -11 0 -14 -3 -6 -6z"/>
<path d="M1890 3509 c-34 -81 -34 -129 0 -129 13 0 17 6 13 19 -3 10 4 40 16
65 15 35 18 53 11 71 -5 14 -11 25 -14 25 -2 0 -13 -23 -26 -51z"/>
<path d="M1932 3340 c0 -14 2 -19 5 -12 2 6 2 18 0 25 -3 6 -5 1 -5 -13z"/>
<path d="M2027 3070 c8 -30 21 -34 15 -5 -2 14 -8 25 -12 25 -5 0 -6 -9 -3
-20z"/>
<path d="M3480 3149 c0 -5 5 -7 10 -4 6 3 10 8 10 11 0 2 -4 4 -10 4 -5 0 -10
-5 -10 -11z"/>
<path d="M1868 2333 c6 -2 18 -2 25 0 6 3 1 5 -13 5 -14 0 -19 -2 -12 -5z"/>
<path d="M1917 2323 c-4 -3 -28 -6 -54 -6 l-48 1 41 -9 c31 -7 48 -6 70 6 16
8 22 15 13 15 -9 0 -19 -3 -22 -7z"/>
<path d="M3895 2530 c-3 -5 -1 -10 4 -10 6 0 11 5 11 10 0 6 -2 10 -4 10 -3 0
-8 -4 -11 -10z"/>
<path d="M3918 1873 c7 -3 16 -2 19 1 4 3 -2 6 -13 5 -11 0 -14 -3 -6 -6z"/>
<path d="M4033 1843 c9 -2 23 -2 30 0 6 3 -1 5 -18 5 -16 0 -22 -2 -12 -5z"/>
<path d="M1435 1820 c-3 -5 -1 -10 4 -10 6 0 11 5 11 10 0 6 -2 10 -4 10 -3 0
-8 -4 -11 -10z"/>
<path d="M1461 1784 c0 -11 3 -14 6 -6 3 7 2 16 -1 19 -3 4 -6 -2 -5 -13z"/>
<path d="M760 1490 c0 -5 5 -10 10 -10 6 0 10 5 10 10 0 6 -4 10 -10 10 -5 0
-10 -4 -10 -10z"/>
<path d="M626 1475 c4 -8 8 -15 10 -15 2 0 4 7 4 15 0 8 -4 15 -10 15 -5 0 -7
-7 -4 -15z"/>
<path d="M662 1310 c0 -14 2 -19 5 -12 2 6 2 18 0 25 -3 6 -5 1 -5 -13z"/>
<path d="M2290 1079 c0 -5 5 -7 10 -4 6 3 10 8 10 11 0 2 -4 4 -10 4 -5 0 -10
-5 -10 -11z"/>
<path d="M2430 950 c0 -5 5 -10 10 -10 6 0 10 5 10 10 0 6 -4 10 -10 10 -5 0
-10 -4 -10 -10z"/>
<path d="M425 3920 c-7 -12 22 -12 50 0 17 7 15 9 -12 9 -17 1 -35 -3 -38 -9z"/>
<path d="M238 3313 c-9 -2 -24 -16 -33 -30 -10 -14 -13 -23 -9 -21 5 3 43 2
84 -3 41 -5 78 -5 83 0 6 6 -94 64 -105 60 -2 -1 -11 -3 -20 -6z"/>
<path d="M331 3201 c-7 -5 -31 -9 -51 -9 -42 -1 -78 -17 -125 -57 l-30 -25 27
0 c14 0 34 -3 42 -6 12 -5 15 -2 10 10 -3 9 -2 16 4 16 5 0 12 -6 15 -14 14
-35 107 -23 107 14 0 26 16 26 32 0 18 -28 42 -26 34 3 -3 12 -6 25 -6 30 0 4
-7 7 -15 7 -9 0 -19 9 -23 20 -5 13 -11 17 -21 11z"/>
<path d="M410 2911 c-15 -28 3 -35 41 -15 25 12 29 18 18 25 -23 14 -48 10
-59 -10z"/>
<path d="M234 2774 c-8 -20 -13 -38 -11 -40 2 -2 11 14 20 36 19 50 12 53 -9
4z"/>
<path d="M315 2727 c-8 -4 -19 -6 -23 -3 -4 2 -14 1 -22 -4 -20 -12 31 -24 73
-16 17 3 49 9 69 12 21 4 35 10 33 15 -7 10 -110 7 -130 -4z"/>
<path d="M6 2614 c-3 -9 -6 -64 -6 -124 l0 -108 43 3 c23 1 54 3 70 4 24 1 27
5 27 39 0 30 -7 45 -33 71 -19 17 -44 52 -56 76 -26 52 -37 61 -45 39z"/>
<path d="M4285 2580 c3 -5 10 -10 16 -10 5 0 9 5 9 10 0 6 -7 10 -16 10 -8 0
-12 -4 -9 -10z"/>
<path d="M4320 2544 c0 -22 2 -25 15 -14 8 7 15 19 15 26 0 8 -7 14 -15 14
-10 0 -15 -10 -15 -26z"/>
<path d="M3275 2380 c3 -5 11 -10 16 -10 6 0 7 5 4 10 -3 6 -11 10 -16 10 -6
0 -7 -4 -4 -10z"/>
<path d="M4335 2380 c-3 -5 -1 -10 4 -10 6 0 11 5 11 10 0 6 -2 10 -4 10 -3 0
-8 -4 -11 -10z"/>
<path d="M3767 2296 l-25 -24 26 -37 27 -37 27 33 c30 35 29 44 -5 44 -17 0
-21 5 -19 23 4 28 1 28 -31 -2z"/>
<path d="M3581 2264 c0 -11 3 -14 6 -6 3 7 2 16 -1 19 -3 4 -6 -2 -5 -13z"/>
<path d="M4301 2234 c0 -11 3 -14 6 -6 3 7 2 16 -1 19 -3 4 -6 -2 -5 -13z"/>
<path d="M4327 2160 c5 -33 1 -43 -21 -63 -14 -13 -26 -30 -26 -37 0 -7 -7
-10 -15 -6 -17 6 -21 -9 -5 -19 17 -10 -10 -37 -31 -32 -10 3 -20 -1 -23 -8
-5 -14 12 -14 48 1 18 7 18 6 1 -20 -17 -25 -17 -27 0 -46 10 -11 22 -20 26
-20 13 0 22 42 21 90 -1 34 1 40 8 25 8 -19 9 -18 10 5 2 14 2 28 1 33 0 4 5
7 12 7 19 0 22 116 3 123 -11 4 -13 -3 -9 -33z"/>
<path d="M4081 2163 c0 -25 1 -26 9 -8 12 27 12 35 0 35 -5 0 -10 -12 -9 -27z"/>
<path d="M4295 2180 c3 -5 8 -10 11 -10 2 0 4 5 4 10 0 6 -5 10 -11 10 -5 0
-7 -4 -4 -10z"/>
<path d="M4264 2102 c-1 -20 0 -29 3 -20 2 9 11 18 20 20 13 3 12 6 -3 20 -18
16 -19 15 -20 -20z"/>
<path d="M4051 2083 c-1 -6 -4 -20 -7 -30 -5 -17 -5 -17 6 0 6 10 9 23 6 30
-3 9 -5 9 -5 0z"/>
<path d="M4110 2079 c0 -5 5 -7 10 -4 6 3 10 8 10 11 0 2 -4 4 -10 4 -5 0 -10
-5 -10 -11z"/>
<path d="M4315 1971 c3 -16 2 -39 -4 -49 -9 -17 -7 -20 13 -24 23 -5 24 -2 24
39 0 33 -4 46 -20 54 -18 10 -19 8 -13 -20z"/>
<path d="M0 328 c0 -26 2 -29 15 -18 19 16 19 36 0 44 -11 4 -15 -2 -15 -26z"/>
</g>
</svg>
